<?xml version="1.0" encoding="UTF-8"?><svg id="Layer_1" xmlns="http://www.w3.org/2000/svg" viewBox="0 0 100 100"><defs><style>.cls-1{fill:#13343b;}</style></defs><path class="cls-1" d="M88.96,66.66c0-5.74-1.71-11.28-4.97-16.14,2.41-.97,4.2-3.17,4.46-5.78.2-1.97-.45-3.95-1.78-5.42-1.33-1.47-3.23-2.32-5.21-2.32H26.54c-3.67,0-6.83,2.77-7.19,6.31-.2,1.97.45,3.95,1.78,5.42.74.82,1.65,1.44,2.66,1.84-3.24,4.86-4.95,10.38-4.95,16.1,0,7.08,2.63,13.63,7.07,18.89-.14.55-.22,1.13-.22,1.72v5.97c0,2.45,1.27,4.65,3.39,5.87,1.06.61,2.22.92,3.39.92s2.33-.31,3.39-.92l5.17-2.98c.09-.05.16-.11.25-.16,3.92,1.36,8.18,2.12,12.63,2.12s8.65-.74,12.55-2.09c.07.04.13.09.2.14l5.17,2.98c1.06.61,2.23.92,3.39.92s2.33-.31,3.39-.92c2.12-1.23,3.39-3.42,3.39-5.87v-5.97c0-.55-.07-1.08-.2-1.6,4.49-5.28,7.17-11.87,7.17-19.01ZM33.08,94.29h0c-.53.31-1,.13-1.23,0-.23-.13-.61-.45-.61-1.06v-2.63c1.21.92,2.5,1.77,3.84,2.54l-2,1.15ZM76.43,93.23c0,.62-.38.93-.61,1.06-.23.13-.69.31-1.23,0l-1.94-1.12c1.32-.75,2.58-1.58,3.78-2.48v2.53ZM78.26,81.23c-3.59,4.59-8.82,8.12-14.94,9.93-2.96.88-6.13,1.36-9.42,1.36s-6.55-.5-9.54-1.4c-6.09-1.83-11.29-5.36-14.86-9.94-3.22-4.14-5.11-9.15-5.11-14.53s1.79-10.29,5.16-14.6c.96-1.23,1.13-2.86.45-4.27-.69-1.41-2.09-2.29-3.66-2.29-.56,0-.93-.31-1.09-.49-.16-.18-.43-.57-.37-1.14.07-.73.82-1.32,1.67-1.32h54.92c.56,0,.93.31,1.09.49.16.18.43.57.37,1.14-.07.73-.82,1.32-1.67,1.32h-.03c-1.53,0-2.89.85-3.55,2.22-.67,1.38-.49,3,.47,4.21,3.44,4.34,5.26,9.44,5.26,14.73s-1.9,10.42-5.15,14.57Z"/><path class="cls-1" d="M42.07,31.31c-.66,0-1.32-.23-1.85-.71l-8.4-7.54c-.64-.57-1.02-1.4-1.05-2.26-.02-.86.31-1.71.92-2.32l8.42-8.42c1.08-1.08,2.84-1.08,3.92,0,1.08,1.08,1.08,2.84,0,3.92l-6.63,6.63,6.52,5.86c1.14,1.02,1.24,2.78.21,3.92-.55.61-1.31.92-2.07.92ZM35.52,18.92h0s0,0,0,0Z"/><path class="cls-1" d="M64.56,31.31c-.76,0-1.52-.31-2.07-.92-1.02-1.14-.93-2.89.21-3.92l6.52-5.86-6.63-6.63c-1.08-1.08-1.08-2.84,0-3.92,1.08-1.08,2.84-1.08,3.92,0l8.42,8.42c.61.61.95,1.46.92,2.32-.02.86-.41,1.69-1.05,2.27l-8.4,7.54c-.53.48-1.19.71-1.85.71ZM71.01,22.4h0,0ZM71.11,18.92s0,0,0,0h0Z"/><path class="cls-1" d="M50.2,34.55c-.24,0-.48-.03-.73-.1-1.48-.4-2.35-1.92-1.95-3.4l6.22-23c.4-1.48,1.93-2.35,3.4-1.95,1.48.4,2.35,1.92,1.95,3.4l-6.22,23c-.33,1.24-1.45,2.05-2.68,2.05Z"/><path class="cls-1" d="M66.36,60.12c-.7,0-1.34-.44-1.58-1.1l-1.4-3.78-3.78-1.4c-.66-.24-1.1-.88-1.1-1.58s.44-1.34,1.1-1.58l3.78-1.4,1.4-3.78c.24-.66.88-1.1,1.58-1.1s1.34.44,1.58,1.1l1.4,3.78,3.78,1.4c.66.24,1.1.88,1.1,1.58s-.44,1.34-1.11,1.58l-3.78,1.4-1.4,3.78c-.24.66-.88,1.1-1.58,1.1ZM63.32,52.25l2.22.82.82,2.22.82-2.22,2.22-.82-2.22-.82-.82-2.22-.82,2.22-2.22.82ZM72.17,51.23s0,0,0,0h0Z"/><path class="cls-1" d="M81.74,15.76c-.7,0-1.34-.44-1.58-1.1l-1.4-3.78-3.78-1.4c-.66-.24-1.1-.88-1.1-1.58s.44-1.34,1.1-1.58l3.79-1.4,1.4-3.78c.24-.66.88-1.1,1.58-1.1s1.34.44,1.58,1.11l1.4,3.78,3.79,1.4c.65.25,1.09.88,1.09,1.58s-.44,1.34-1.1,1.58l-3.78,1.4-1.4,3.78c-.24.66-.88,1.1-1.58,1.1ZM78.69,7.89l2.22.82.82,2.22.82-2.22,2.22-.82-2.22-.82-.82-2.22-.82,2.22-2.22.82ZM75.93,6.87h0s0,0,0,0ZM80.72,2.09s0,0,0,0h0ZM82.76,2.08h0s0,0,0,0Z"/><path class="cls-1" d="M18.26,36.99c-.7,0-1.34-.44-1.58-1.1l-1.4-3.78-3.78-1.4c-.66-.25-1.1-.88-1.1-1.58s.44-1.34,1.1-1.58l3.79-1.4,1.4-3.78c.24-.66.88-1.1,1.58-1.1s1.34.44,1.58,1.1l1.4,3.78,3.79,1.4c.65.25,1.09.88,1.09,1.58s-.44,1.33-1.09,1.58l-3.79,1.4-1.4,3.78c-.24.66-.88,1.1-1.58,1.1ZM15.22,29.12l2.22.82.82,2.23.82-2.23,2.22-.82-2.22-.82-.82-2.23-.82,2.23-2.22.82Z"/></svg>