<?xml version="1.0" encoding="UTF-8"?><svg id="Layer_1" xmlns="http://www.w3.org/2000/svg" viewBox="0 0 79.58 100"><defs><style>.cls-1{fill:#13343b;}</style></defs><path class="cls-1" d="M31.82,30.97c-.55,0-1.11-.2-1.55-.59l-8.44-7.58c-.55-.5-.88-1.21-.9-1.95-.02-.74.27-1.46.79-1.99l8.46-8.46c.91-.91,2.38-.91,3.29,0s.91,2.38,0,3.29l-7.01,7.01,6.92,6.21c.95.86,1.03,2.33.18,3.28-.46.51-1.09.77-1.73.77Z"/><path class="cls-1" d="M54.42,30.97c-.64,0-1.27-.26-1.73-.77-.86-.95-.78-2.42.18-3.28l6.92-6.21-7.01-7.01c-.91-.91-.91-2.38,0-3.29s2.38-.91,3.29,0l8.46,8.46c.52.52.81,1.25.79,1.99-.02.74-.35,1.45-.9,1.94l-8.44,7.58c-.44.4-1,.59-1.55.59ZM61.23,22.15h0,0Z"/><path class="cls-1" d="M39.99,34.22c-.2,0-.41-.03-.61-.08-1.24-.33-1.97-1.61-1.64-2.85l6.25-23.1c.34-1.24,1.61-1.97,2.85-1.64,1.24.33,1.97,1.61,1.64,2.85l-6.25,23.1c-.28,1.04-1.22,1.72-2.24,1.72Z"/><path class="cls-1" d="M78.46,66.94c0-5.87-1.81-11.52-5.26-16.45,2.53-.78,4.48-2.97,4.75-5.62.19-1.85-.42-3.71-1.67-5.09-1.25-1.38-3.03-2.18-4.89-2.18H16.22c-3.45,0-6.42,2.6-6.76,5.92-.19,1.85.42,3.71,1.67,5.09.83.92,1.89,1.57,3.05,1.91-3.43,4.92-5.23,10.56-5.23,16.41,0,6.83,2.53,13.48,7.14,18.88-.18.59-.27,1.2-.27,1.82v6c0,2.29,1.19,4.35,3.17,5.5.99.57,2.08.86,3.17.86s2.18-.29,3.17-.86l5.19-3c.14-.08.26-.19.4-.28,4.07,1.44,8.36,2.18,12.77,2.18s8.64-.73,12.68-2.15c.12.08.23.18.36.25l5.19,3c.99.57,2.08.86,3.17.86s2.18-.29,3.17-.86c1.99-1.15,3.17-3.2,3.17-5.5v-6c0-.58-.08-1.15-.24-1.71,4.68-5.42,7.24-12.11,7.24-19ZM23.02,95.12c-.76.44-1.44.15-1.7,0-.26-.15-.85-.59-.85-1.47v-3.58c.17.14.35.27.53.4.16.13.33.25.49.38.34.25.68.49,1.03.73.14.09.27.19.4.28.48.32.97.63,1.47.93.12.07.24.14.36.21.32.19.64.37.96.55l-2.7,1.56ZM31.32,91.05c-4.15-1.65-7.88-4.15-10.8-7.24-4.47-4.73-6.93-10.72-6.93-16.87,0-5.37,1.83-10.54,5.28-14.96.86-1.09,1.01-2.55.4-3.8-.61-1.26-1.86-2.04-3.26-2.04-.54,0-1.07-.24-1.44-.65-.22-.24-.57-.75-.49-1.5.1-.98,1.04-1.74,2.14-1.74h55.17c.55,0,1.07.24,1.44.65.22.24.57.75.49,1.5-.1.98-1.04,1.74-2.17,1.74-1.36,0-2.56.76-3.15,1.97-.59,1.23-.43,2.66.42,3.74,3.53,4.44,5.39,9.66,5.39,15.09,0,6.18-2.49,12.19-7,16.94-2.93,3.08-6.67,5.57-10.81,7.2-3.89,1.53-8.02,2.31-12.3,2.31s-8.47-.79-12.39-2.35ZM66.81,93.64c0,.88-.59,1.32-.85,1.47-.25.15-.93.44-1.7,0l-2.64-1.53c.33-.18.66-.37.99-.56.1-.06.2-.11.3-.17.5-.3,1-.61,1.48-.93.13-.08.25-.17.37-.26.36-.24.71-.49,1.05-.74.17-.12.33-.25.5-.38.16-.13.33-.25.49-.38v3.47Z"/><path class="cls-1" d="M55.7,59.28c.25.66.89,1.1,1.59,1.1s1.34-.44,1.59-1.11l1.41-3.8,3.81-1.41c.66-.25,1.1-.89,1.1-1.59s-.44-1.34-1.1-1.59l-3.81-1.41-1.41-3.81c-.25-.66-.89-1.1-1.59-1.1s-1.34.44-1.59,1.11l-1.41,3.8-3.81,1.41c-.66.25-1.1.89-1.1,1.59s.44,1.34,1.11,1.59l3.8,1.41,1.41,3.81ZM56.46,51.65l.83-2.23.83,2.24,2.23.83-2.23.83-.83,2.24-.83-2.23-2.23-.83,2.23-.83Z"/><path class="cls-1" d="M71.67,15.81c-.71,0-1.35-.45-1.59-1.11l-1.41-3.8-3.8-1.41c-.66-.24-1.11-.88-1.11-1.59s.45-1.35,1.11-1.59l3.8-1.41,1.41-3.8c.25-.66.88-1.11,1.59-1.11s1.35.45,1.59,1.11l1.41,3.8,3.8,1.41c.66.25,1.11.88,1.11,1.59s-.45,1.35-1.11,1.59l-3.8,1.41-1.41,3.8c-.24.66-.88,1.11-1.59,1.11ZM70.65,13.73s0,0,0,0h0ZM72.7,13.73h0s0,0,0,0ZM68.61,7.91l2.23.83.83,2.23.83-2.23,2.23-.83-2.23-.83-.83-2.23-.83,2.23-2.23.83ZM65.85,8.93h0s0,0,0,0ZM65.84,6.88h0s0,0,0,0Z"/><path class="cls-1" d="M7.91,37.14c-.71,0-1.35-.45-1.59-1.11l-1.41-3.8-3.8-1.41c-.66-.24-1.11-.88-1.11-1.59s.45-1.35,1.11-1.59l3.8-1.41,1.41-3.8c.25-.66.88-1.11,1.59-1.11s1.35.45,1.59,1.11l1.41,3.8,3.8,1.41c.66.25,1.11.88,1.11,1.59s-.45,1.35-1.11,1.59l-3.8,1.41-1.41,3.8c-.25.66-.88,1.11-1.59,1.11ZM4.84,29.23l2.23.83.83,2.23.83-2.23,2.23-.83-2.23-.83-.83-2.23-.83,2.23-2.23.83ZM2.08,30.26h0s0,0,0,0ZM2.07,28.21h0s0,0,0,0Z"/></svg>