<?xml version="1.0" encoding="UTF-8"?><svg id="Layer_1" xmlns="http://www.w3.org/2000/svg" viewBox="0 0 100 100"><defs><style>.cls-1{fill:#13343b;}</style></defs><path class="cls-1" d="M88.63,65.58c0-6.33-2.03-12.42-5.88-17.68,2.81-.55,5.06-2.85,5.35-5.69.18-1.82-.41-3.64-1.64-5-1.23-1.36-2.98-2.14-4.8-2.14H23.39c-3.4,0-6.32,2.55-6.65,5.81-.18,1.82.41,3.64,1.64,5,.97,1.08,2.28,1.79,3.68,2.04-3.84,5.25-5.86,11.33-5.86,17.65,0,7.46,2.85,14.33,7.62,19.81-.22.65-.36,1.34-.36,2.05v6.33c0,2.24,1.16,4.26,3.1,5.38.97.56,2.04.84,3.11.84s2.13-.28,3.11-.84l5.48-3.17c.22-.13.42-.27.62-.41,4.18,1.51,8.75,2.35,13.53,2.35s9.28-.83,13.44-2.32c.18.13.37.27.57.38l5.48,3.17c.97.56,2.04.84,3.11.84s2.13-.28,3.11-.84c1.94-1.12,3.1-3.13,3.1-5.38v-6.33c0-.68-.12-1.33-.32-1.94,4.83-5.5,7.72-12.41,7.72-19.92ZM30.81,95.76c-1.03.59-1.94.2-2.29,0-.34-.2-1.14-.79-1.14-1.98v-4.85c2.13,1.82,4.5,3.41,7.07,4.72l-3.64,2.1ZM63.54,92.26c-3.47,1.13-7.22,1.74-11.13,1.74s-7.75-.63-11.25-1.78c-1.28-.42-2.52-.92-3.72-1.47-3.1-1.44-5.91-3.31-8.32-5.52-1.02-.93-1.97-1.93-2.83-2.98-3.87-4.69-6.16-10.45-6.16-16.67,0-5.78,1.97-11.35,5.69-16.1.79-1,.93-2.34.37-3.49-.56-1.16-1.72-1.88-3-1.88-.71,0-1.4-.31-1.89-.84-.49-.54-.72-1.24-.65-1.97.13-1.28,1.34-2.28,2.75-2.28h58.27c.71,0,1.4.31,1.89.84.49.54.72,1.24.65,1.97-.13,1.28-1.34,2.28-2.75,2.28h-.04c-1.24,0-2.35.69-2.89,1.81-.54,1.13-.4,2.44.38,3.43,3.79,4.78,5.8,10.4,5.8,16.24,0,6.25-2.31,12.03-6.21,16.73-.86,1.04-1.8,2.02-2.81,2.95-2.43,2.23-5.27,4.11-8.42,5.55-1.2.55-2.44,1.04-3.72,1.45ZM77.3,93.78c0,1.19-.8,1.78-1.14,1.98-.34.2-1.25.6-2.29,0l-3.58-2.06c2.54-1.3,4.89-2.86,7-4.65v4.73Z"/><path class="cls-1" d="M39.86,27.1c-.47,0-.94-.17-1.31-.5l-8.91-8c-.48-.44-.77-1.06-.79-1.7-.02-.65.24-1.28.7-1.74l8.93-8.93c.77-.77,2.01-.77,2.78,0s.77,2.01,0,2.78l-7.77,7.77,7.69,6.91c.81.72.87,1.97.15,2.77-.39.43-.92.65-1.46.65ZM32.32,17.93h0s0,0,0,0Z"/><path class="cls-1" d="M63.73,27.1c-.54,0-1.07-.22-1.46-.65-.72-.81-.66-2.05.15-2.77l7.69-6.91-7.77-7.77c-.77-.77-.77-2.01,0-2.78s2.01-.77,2.78,0l8.93,8.93c.46.45.71,1.09.69,1.73-.02.65-.3,1.27-.78,1.7l-8.92,8.01c-.37.34-.84.5-1.31.5ZM71.27,17.93h0s0,0,0,0Z"/><path class="cls-1" d="M48.49,30.54c-.17,0-.34-.02-.51-.07-1.05-.28-1.67-1.36-1.38-2.41l6.6-24.4c.28-1.05,1.36-1.66,2.41-1.38,1.05.28,1.67,1.36,1.38,2.41l-6.6,24.4c-.24.88-1.03,1.45-1.89,1.45Z"/><path class="cls-1" d="M68.87,58.65c-.75,0-1.42-.47-1.68-1.17l-1.48-4.01-4.01-1.48c-.7-.26-1.17-.93-1.17-1.68s.47-1.42,1.17-1.68l4.01-1.48,1.48-4.01c.26-.7.93-1.17,1.68-1.17s1.42.47,1.68,1.17l1.48,4.01,4.01,1.48c.7.26,1.17.93,1.17,1.68s-.47,1.42-1.17,1.68l-4.01,1.48-1.48,4.01c-.26.7-.93,1.17-1.68,1.17ZM65.64,50.3l2.36.87.87,2.36.87-2.36,2.36-.87-2.36-.87-.87-2.36-.87,2.36-2.36.87ZM67.79,44.14s0,0,0,0h0ZM69.95,44.14h0s0,0,0,0Z"/><path class="cls-1" d="M88.63,16.7c-.74,0-1.41-.47-1.68-1.16l-1.49-4.02-4.01-1.48c-.7-.26-1.17-.94-1.17-1.68s.47-1.42,1.17-1.68l4.02-1.49,1.48-4.02c.27-.7.94-1.17,1.68-1.17s1.41.47,1.68,1.16l1.49,4.02,4.02,1.49c.69.26,1.16.94,1.16,1.68s-.47,1.41-1.16,1.68l-4.02,1.49-1.48,4.01c-.27.7-.94,1.17-1.68,1.17ZM85.4,8.35l2.36.87.87,2.36.87-2.36,2.36-.87-2.36-.87-.87-2.36-.87,2.36-2.36.87Z"/><path class="cls-1" d="M11.37,38.89c-.74,0-1.42-.47-1.68-1.16l-1.49-4.02-4.02-1.48c-.7-.27-1.17-.94-1.17-1.68s.47-1.41,1.16-1.68l4.02-1.49,1.48-4.01c.27-.7.94-1.17,1.68-1.17s1.41.47,1.68,1.16l1.49,4.02,4.02,1.49c.69.26,1.16.94,1.16,1.68s-.47,1.41-1.16,1.68l-4.02,1.49-1.48,4.01c-.26.7-.94,1.17-1.68,1.17ZM8.14,30.54l2.36.87.87,2.36.87-2.36,2.36-.87-2.36-.87-.87-2.36-.87,2.36-2.36.87Z"/></svg>