<?xml version="1.0" encoding="UTF-8"?><svg id="Layer_1" xmlns="http://www.w3.org/2000/svg" viewBox="0 0 240 372.99"><defs><style>.cls-1{font-family:TAN-PEARL-Regular, 'TAN - PEARL';font-size:24px;}.cls-1,.cls-2{fill:#13343b;}.cls-3{stroke:#000;}.cls-3,.cls-4{fill:none;stroke-miterlimit:10;}.cls-4{stroke:#13343b;}.cls-5{letter-spacing:-.06em;}.cls-6{letter-spacing:-.18em;}</style></defs><rect class="cls-4" x="9.94" y="11.56" width="220.12" height="349.88" rx="12" ry="12"/><text class="cls-1" transform="translate(66.16 93.99)"><tspan class="cls-6" x="0" y="0">W</tspan><tspan x="27.84" y="0">ant to </tspan><tspan x="-11.29" y="33">broaden </tspan><tspan class="cls-5" x="18.65" y="66">y</tspan><tspan x="34.78" y="66">our </tspan><tspan x="1.32" y="99">career </tspan><tspan x="-20.99" y="132">prospects </tspan><tspan x="23.7" y="165">as a </tspan><tspan x="-31.93" y="198">d</tspan><tspan class="cls-5" x="-11.92" y="198">ev</tspan><tspan x="21.32" y="198">eloper?</tspan></text><path class="cls-2" d="M31.39,57.83c-.08.03-.23-.05-.29-.17h-.04s-.06-.01-.08-.02c-.03,0-.06-.01-.08-.02-.27-.13-.54-.27-.82-.4-.02,0-.05-.02-.07-.02-.02.09-.04.18-.05.26-.02.2-.04.4-.06.6,0,0,0,.02,0,.03-.11.11-.05.26-.08.38-.04.16-.08.32-.11.49,0,.05-.01.09,0,.14,0,.06.02.12-.05.15,0,0,0,.03,0,.04,0,.06,0,.11,0,.17-.02.12-.06.24-.08.36-.02.09,0,.19-.02.29,0,.08-.03.14-.05.22-.02.09-.04.19-.06.28s-.04.2-.06.3c0,.02-.02.05-.04.07.05.03.05.06.02.13-.03.11-.05.22-.05.33,0,.03,0,.06-.01.08-.02.08-.03.16-.05.24-.05.21-.06.42-.1.63-.06.23-.07.48-.1.72,0,.07-.03.13-.04.2-.02.13-.04.26-.07.4-.01.07-.04.14-.05.22,0,.03,0,.07,0,.1l-.04.02c.07.12,0,.23-.02.35s-.05.21-.07.32c-.01.09-.02.18-.02.27,0,.02,0,.04,0,.05-.09.17-.07.36-.1.54-.01.06-.13.2-.16.18-.07-.04-.12-.1-.16-.17-.04-.11-.05-.22-.05-.34,0-.07-.02-.15-.06-.21-.02-.05-.02-.11-.01-.16,0-.27-.11-.51-.14-.78-.03-.24-.1-.47-.1-.72,0-.14-.06-.29-.09-.43,0-.04,0-.08,0-.12,0-.06-.02-.12-.03-.19s-.03-.12-.04-.18-.02-.13-.03-.19c-.03-.11-.05-.23-.05-.35,0-.08-.05-.14-.04-.21.02-.09-.03-.14-.05-.21-.02-.09-.02-.18-.04-.26,0-.05-.02-.1-.03-.15,0-.03.01-.07.03-.1-.02-.03-.03-.05-.04-.08-.02-.1-.02-.19-.04-.29-.03-.15-.06-.29-.09-.44-.02-.07-.03-.14-.04-.21-.02-.09-.03-.19-.04-.28-.03-.16-.06-.32-.09-.47-.05-.28-.1-.55-.16-.82-.03-.12-.07-.23-.1-.35,0,0,0,0,0,0,.06-.1-.02-.2-.02-.3-.01-.15-.03-.29-.05-.44,0-.07-.06-.06-.09-.04-.07.03-.13.08-.2.11-.2.1-.4.19-.6.28-.03,0-.07.01-.1.01v.04s-.07-.02-.07-.02c-.09.1-.18.2-.34.16,0,.09-.09.11-.15.13s-.14.06-.2.1c-.13.07-.26.14-.39.2-.2.1-.39.2-.59.29-.16.08-.32.15-.48.23-.18.08-.35.15-.53.23-.01,0-.02.02-.03.03-.19-.14-.16-.17-.1-.37.04-.14.08-.29.11-.43.03-.12.08-.23.1-.35.04-.17.12-.31.17-.47.08-.22.12-.45.19-.67.03-.1.09-.19.12-.29.02-.05,0-.11.02-.16.02-.04.04-.09.07-.13,0-.01.01-.02.02-.04.02-.17.06-.34.13-.49.02-.04.03-.08.03-.12,0-.06.04-.08.09-.06-.04-.06-.03-.22.03-.26.05-.03,0-.03,0-.05,0-.03,0-.06.01-.09.02-.06.04-.11.06-.16.01-.02.04-.04.05-.05,0-.02-.02-.05-.02-.07.06-.19.14-.38.2-.57.04-.12.07-.25.09-.38,0-.02-.06-.06-.1-.06-.09-.02-.18-.03-.26-.04-.03,0-.07.02-.09.01-.07-.02-.14-.04-.19-.05-.07,0-.14,0-.21,0-.08-.01-.17-.03-.25-.05-.02,0-.03.01-.05.01-.05-.01-.12-.01-.14-.05-.05-.07-.09-.06-.15-.02-.04.03-.09.06-.15,0-.02-.01-.05-.02-.08-.02-.11-.01-.23-.02-.34-.03-.04-.01-.07-.02-.1-.04-.04-.01-.08-.03-.11-.02-.13.06-.25-.03-.37-.03-.11,0-.22-.01-.33-.03-.15-.02-.29-.06-.44-.08-.03,0-.07-.01-.1-.02-.11,0-.21-.01-.32-.03s-.23-.05-.34-.08c-.04,0-.09,0-.13,0-.09,0-.18-.01-.27-.03-.04,0-.07-.04-.11-.04s-.09,0-.14,0c-.13,0-.27,0-.4-.02-.17-.02-.33-.06-.5-.08-.14-.02-.27-.03-.41-.05-.11-.02-.21-.04-.32-.05-.14-.02-.28-.04-.43-.06-.29-.04-.58-.08-.87-.12-.08,0-.15-.06-.17-.14-.02-.09.03-.17.11-.22.08-.05.17-.07.26-.08.1-.01.21-.04.31-.07.06-.01.12-.07.19,0,0,0,.03,0,.04-.01.1-.04.2-.06.31-.06.08-.02.17-.04.25-.07.04-.02.09-.03.13-.03.19-.02.38-.03.57-.05.04-.01.08-.02.11-.04.08-.02.15-.04.23-.07.04-.02.08,0,.1.03,0,0,0,0,0,0,0,.01.09,0,.09-.02.01-.05.06-.08.11-.08.1-.01.21-.02.31-.04h.04c.08-.03.14-.1.23-.04.02.01.07-.02.1-.04.05-.03.1-.04.12.04l.13-.08.04.07s.1-.08.14-.08c.12,0,.23-.11.36-.03,0,0,.05-.03.08-.05.05.03.12.02.15-.03.02-.02.05-.03.08-.02.13.03.22-.05.34-.08.1-.02.2-.02.3-.04.11-.02.22-.05.34-.08.02,0,.05-.01.07-.02l.28-.03s.08,0,.11-.01c.06,0,.12-.02.15-.07,0,0,.03,0,.06,0v.08h.1s-.04-.06-.04-.06c.14-.03.27-.05.4-.08.06-.02.12-.03.18-.04.07,0,.13,0,.2.01.02,0,.05.02.05,0,.08-.09.2-.05.29-.08.06-.02.13-.02.2-.04.03-.01.06-.03.09-.05-.05-.13-.1-.25-.14-.37-.07-.17-.13-.34-.19-.51-.01-.04-.03-.07-.04-.11-.03-.06-.05-.11-.08-.17-.05-.11-.1-.22-.15-.34-.02-.06-.04-.11-.06-.17-.05-.13-.1-.25-.14-.38-.02-.07-.03-.13-.06-.2-.04-.11-.1-.22-.14-.34-.02-.05-.01-.11-.03-.15-.09-.24-.21-.47-.27-.72-.03-.13-.1-.23-.14-.35s-.09-.26-.13-.39c-.02-.07-.05-.14-.08-.21-.04-.12-.09-.25-.13-.37-.02-.06-.05-.13-.08-.19-.03-.05-.03-.12,0-.17.02-.03,0-.07.02-.1.03-.04.08-.1.11-.1.1,0,.2.03.3.06.08.03.06.11.02.16.07-.01.13-.02.2-.03.08,0,.15.04.19.1.03.03.07.04.12.03.11-.02.16.08.24.12.06.02.11.07.17.1.14.07.29.13.44.19.13.05.26.1.38.16.09.05.18.11.26.17l.03-.04s.09.08.14.11c.23.1.47.2.7.31.21.09.41.18.61.28.11.06.21.13.31.21.02-.07.04-.14.05-.22.03-.16.04-.32.07-.48.02-.15.05-.29.08-.44.04-.2.09-.4.13-.6.06-.29.1-.58.16-.87.03-.16.08-.32.13-.48,0-.01,0-.02,0-.04,0-.13.04-.27.09-.39.02-.09.03-.18.03-.27,0-.03,0-.07.01-.1.03-.11.06-.23.07-.34.01-.04.03-.07.05-.11l.07.03c-.08-.22-.07-.41.09-.58-.06-.06-.07-.15-.01-.22.01-.01.03-.02.04-.03-.01-.02-.03-.04-.03-.06,0-.12.02-.24.07-.35.03-.09.05-.18.05-.28.02-.1.02-.2.04-.3.02-.04.04-.08.07-.11,0,0-.03-.01-.03-.02,0-.07-.02-.15.01-.21.09-.14.05-.31.09-.45.03-.13.06-.26.1-.39,0-.02.05-.03.08-.04-.07-.05-.08-.15-.04-.22.03-.08.06-.16.08-.24,0-.05,0-.1,0-.15.01-.11.03-.21.06-.32,0-.02.07-.03.1-.04s.08,0,.12,0c.07-.02.11,0,.12.08.02.11.03.23.05.34.02.11.05.22.08.33.03.08.03.16-.02.2.03.04.05.09.07.13.03.1.06.19.08.29.02.12.02.24.03.36,0,.02,0,.04.02.05.08.08.06.18.06.27,0,.01-.02.03-.02.02.02.05.04.1.06.15.03.13.05.26.08.38.04.18.07.36.11.56-.11-.04-.11.01-.1.08l.04-.06c.12.06.12.16-.02.27.01,0,.03.03.03.03.1-.06.09.02.11.08.04.1.06.21.05.32-.02.05-.04.09-.07.13l.11-.02c.02.08.04.15.06.24s.05.18.07.27c.04.16.08.32.11.48.04.18.07.36.1.54.04.19.08.38.11.57.04.21.06.43.11.65.03.09.06.18.1.27.01.03.01.06.01.09,0,.06-.03.11.02.16,0,0,0,.03,0,.05-.02.04-.01.08.02.11,0,0,0,0,0,0,.01,0,.02.02.02.04.01.09.02.19.03.28,0,.03.02.05.04.08l-.09.04c.08.05.12.13.12.22-.02.1.01.2.09.26.02-.03.05-.06.08-.09.06-.05.12-.09.18-.12.06-.02.12-.04.18-.05.02,0,.06,0,.07-.02.04-.08.1-.08.17-.03.03-.11.13-.18.25-.18.01,0,.02,0,.03-.02.09-.16.24-.17.39-.19.01,0,.03,0,.03,0,.05-.12.21-.08.27-.18.01-.02.04-.03.06-.05.08.07.13-.02.19-.05.12-.06.23-.12.35-.18.03-.02.07-.03.1-.04.15-.07.3-.13.44-.21.1-.05.2-.12.3-.17.18-.09.37-.17.55-.25.03-.02.06-.03.09-.04.11-.04.22-.06.33-.08.06,0,.11.04.1.12,0,.01,0,.02,0,.03.08.13.04.25-.03.37-.04.09-.07.19-.09.28-.02.07-.05.14-.08.21-.06.12-.11.25-.15.39-.02.08-.04.17-.08.25,0,.02-.01.03-.02.05-.03.04-.05.09-.05.14-.02.1-.05.19-.09.28-.07.18-.17.35-.21.53-.04.16-.13.3-.17.45-.03.12-.06.24-.11.35-.08.19-.15.38-.23.57-.03.07-.05.14-.08.2,0,.03-.02.05-.03.07s-.02.05-.03.08c-.02.05-.04.09-.05.14-.03.12-.07.24-.12.35-.06.12-.11.24-.15.37,0,.03-.04.05-.08.1.06.02.11.03.16.05.03,0,.06.01.09.02.09.02.18.03.27.05.02,0,.03.02.04.02.04.01.08.02.12.02.1,0,.2,0,.29.02.08.01.17.03.25.05.07.02.14.04.22.06l-.04.04v.02s.06-.04.09-.05c.02-.01.05-.02.08-.01.03.08.11.05.16.06.18.03.37.04.56.08.13.02.25.06.38.09.1.02.2.03.3.06.06.02.12.02.17.02.03,0,.06,0,.08.02.08.08.18.05.26.05.14.01.27.04.4.08.03,0,.08.06.11,0,0,0,.02,0,.03,0,.05.02.09.05.14,0h.03c.11.02.22.04.33.06.11.03.22.05.33.04,0,0,.02,0,.03,0,.16.09.35.08.52.11.16.03.33.05.49.08s.32.07.47.11c.08.02.17.04.25.06.05,0,.1.01.15.03.06.04.12,0,.18.01.08.01.16.03.24.05.11.02.22.05.33.08.12.03.21.13.22.25,0,.04-.11.14-.17.15-.22.03-.44.06-.67.09-.17.03-.34.06-.51.08-.04,0-.09,0-.13,0-.14.02-.29.03-.43.05,0,0-.02,0-.03,0-.21.09-.44.03-.65.1s-.44.04-.66.08c-.19.03-.38.07-.57.1-.09.02-.18.03-.27.04s-.19.02-.28.03c-.14.02-.29.03-.43.04-.06,0-.13.03-.19.04-.18.03-.36.06-.54.09-.02,0-.03,0-.05,0-.07-.05-.13-.02-.2.01-.02.01-.05.02-.08.02-.1,0-.2.01-.29.03-.07,0-.13.03-.2.04v.02l-.13-.11s-.08.07-.13.1c-.02.02-.05.03-.08.02-.1-.03-.19,0-.28.02-.07,0-.13.02-.2.02-.01,0-.02-.03-.03-.04-.1.06-.19.1-.31.07-.05-.01-.12.03-.18.04-.21.02-.21.02-.15.23.06.18.12.36.18.55.02.08.05.15.07.23,0,.03,0,.06,0,.09,0,0,.02,0,.03,0,.04.09.08.18.09.27,0,.03.01.07.03.1.01.06.04.12.06.19.02.06.04.12.07.19.06.15.11.31.14.48.03.09.07.17.1.25.05.14.09.28.13.42.02.06.04.12.06.19.03.09.05.19.08.28.04.15.09.31.14.46.06.18.15.35.17.55.02.08.05.16.08.23.04.12.07.23.09.35.02.11-.08.15-.14.21-.2-.09-.4-.18-.6-.28-.31-.15-.61-.3-.91-.45-.16-.08-.32-.16-.49-.24-.09-.04-.18-.08-.27-.13-.07-.04-.13-.08-.19-.12Z"/><path class="cls-2" d="M214.5,57.83c-.08.03-.23-.05-.29-.17h-.04s-.06-.01-.08-.02c-.03,0-.06-.01-.08-.02-.27-.13-.54-.27-.82-.4-.02,0-.05-.02-.07-.02-.02.09-.04.18-.05.26-.02.2-.04.4-.06.6,0,0,0,.02,0,.03-.11.11-.05.26-.08.38-.04.16-.08.32-.11.49,0,.05-.01.09,0,.14,0,.06.02.12-.05.15,0,0,0,.03,0,.04,0,.06,0,.11,0,.17-.02.12-.06.24-.08.36-.02.09,0,.19-.02.29,0,.08-.03.14-.05.22-.02.09-.04.19-.06.28s-.04.2-.06.3c0,.02-.02.05-.04.07.05.03.05.06.02.13-.03.11-.05.22-.05.33,0,.03,0,.06-.01.08-.02.08-.03.16-.05.24-.05.21-.06.42-.1.63-.06.23-.07.48-.1.72,0,.07-.03.13-.04.2-.02.13-.04.26-.07.4-.01.07-.04.14-.05.22,0,.03,0,.07,0,.1l-.04.02c.07.12,0,.23-.02.35s-.05.21-.07.32c-.01.09-.02.18-.02.27,0,.02,0,.04,0,.05-.09.17-.07.36-.1.54-.01.06-.13.2-.16.18-.07-.04-.12-.1-.16-.17-.04-.11-.05-.22-.05-.34,0-.07-.02-.15-.06-.21-.02-.05-.02-.11-.01-.16,0-.27-.11-.51-.14-.78-.03-.24-.1-.47-.1-.72,0-.14-.06-.29-.09-.43,0-.04,0-.08,0-.12,0-.06-.02-.12-.03-.19s-.03-.12-.04-.18-.02-.13-.03-.19c-.03-.11-.05-.23-.05-.35,0-.08-.05-.14-.04-.21.02-.09-.03-.14-.05-.21-.02-.09-.02-.18-.04-.26,0-.05-.02-.1-.03-.15,0-.03.01-.07.03-.1-.02-.03-.03-.05-.04-.08-.02-.1-.02-.19-.04-.29-.03-.15-.06-.29-.09-.44-.02-.07-.03-.14-.04-.21-.02-.09-.03-.19-.04-.28-.03-.16-.06-.32-.09-.47-.05-.28-.1-.55-.16-.82-.03-.12-.07-.23-.1-.35,0,0,0,0,0,0,.06-.1-.02-.2-.02-.3-.01-.15-.03-.29-.05-.44,0-.07-.06-.06-.09-.04-.07.03-.13.08-.2.11-.2.1-.4.19-.6.28-.03,0-.07.01-.1.01v.04s-.07-.02-.07-.02c-.09.1-.18.2-.34.16,0,.09-.09.11-.15.13s-.14.06-.2.1c-.13.07-.26.14-.39.2-.2.1-.39.2-.59.29-.16.08-.32.15-.48.23-.18.08-.35.15-.53.23-.01,0-.02.02-.03.03-.19-.14-.16-.17-.1-.37.04-.14.08-.29.11-.43.03-.12.08-.23.1-.35.04-.17.12-.31.17-.47.08-.22.12-.45.19-.67.03-.1.09-.19.12-.29.02-.05,0-.11.02-.16.02-.04.04-.09.07-.13,0-.01.01-.02.02-.04.02-.17.06-.34.13-.49.02-.04.03-.08.03-.12,0-.06.04-.08.09-.06-.04-.06-.03-.22.03-.26.05-.03,0-.03,0-.05,0-.03,0-.06.01-.09.02-.06.04-.11.06-.16.01-.02.04-.04.05-.05,0-.02-.02-.05-.02-.07.06-.19.14-.38.2-.57.04-.12.07-.25.09-.38,0-.02-.06-.06-.1-.06-.09-.02-.18-.03-.26-.04-.03,0-.07.02-.09.01-.07-.02-.14-.04-.19-.05-.07,0-.14,0-.21,0-.08-.01-.17-.03-.25-.05-.02,0-.03.01-.05.01-.05-.01-.12-.01-.14-.05-.05-.07-.09-.06-.15-.02-.04.03-.09.06-.15,0-.02-.01-.05-.02-.08-.02-.11-.01-.23-.02-.34-.03-.04-.01-.07-.02-.1-.04-.04-.01-.08-.03-.11-.02-.13.06-.25-.03-.37-.03-.11,0-.22-.01-.33-.03-.15-.02-.29-.06-.44-.08-.03,0-.07-.01-.1-.02-.11,0-.21-.01-.32-.03s-.23-.05-.34-.08c-.04,0-.09,0-.13,0-.09,0-.18-.01-.27-.03-.04,0-.07-.04-.11-.04s-.09,0-.14,0c-.13,0-.27,0-.4-.02-.17-.02-.33-.06-.5-.08-.14-.02-.27-.03-.41-.05-.11-.02-.21-.04-.32-.05-.14-.02-.28-.04-.43-.06-.29-.04-.58-.08-.87-.12-.08,0-.15-.06-.17-.14-.02-.09.03-.17.11-.22.08-.05.17-.07.26-.08.1-.01.21-.04.31-.07.06-.01.12-.07.19,0,0,0,.03,0,.04-.01.1-.04.2-.06.31-.06.08-.02.17-.04.25-.07.04-.02.09-.03.13-.03.19-.02.38-.03.57-.05.04-.01.08-.02.11-.04.08-.02.15-.04.23-.07.04-.02.08,0,.1.03,0,0,0,0,0,0,0,.01.09,0,.09-.02.01-.05.06-.08.11-.08.1-.01.21-.02.31-.04h.04c.08-.03.14-.1.23-.04.02.01.07-.02.1-.04.05-.03.1-.04.12.04l.13-.08.04.07s.1-.08.14-.08c.12,0,.23-.11.36-.03,0,0,.05-.03.08-.05.05.03.12.02.15-.03.02-.02.05-.03.08-.02.13.03.22-.05.34-.08.1-.02.2-.02.3-.04.11-.02.22-.05.34-.08.02,0,.05-.01.07-.02l.28-.03s.08,0,.11-.01c.06,0,.12-.02.15-.07,0,0,.03,0,.06,0v.08h.1s-.04-.06-.04-.06c.14-.03.27-.05.4-.08.06-.02.12-.03.18-.04.07,0,.13,0,.2.01.02,0,.05.02.05,0,.08-.09.2-.05.29-.08.06-.02.13-.02.2-.04.03-.01.06-.03.09-.05-.05-.13-.1-.25-.14-.37-.07-.17-.13-.34-.19-.51-.01-.04-.03-.07-.04-.11-.03-.06-.05-.11-.08-.17-.05-.11-.1-.22-.15-.34-.02-.06-.04-.11-.06-.17-.05-.13-.1-.25-.14-.38-.02-.07-.03-.13-.06-.2-.04-.11-.1-.22-.14-.34-.02-.05-.01-.11-.03-.15-.09-.24-.21-.47-.27-.72-.03-.13-.1-.23-.14-.35s-.09-.26-.13-.39c-.02-.07-.05-.14-.08-.21-.04-.12-.09-.25-.13-.37-.02-.06-.05-.13-.08-.19-.03-.05-.03-.12,0-.17.02-.03,0-.07.02-.1.03-.04.08-.1.11-.1.1,0,.2.03.3.06.08.03.06.11.02.16.07-.01.13-.02.2-.03.08,0,.15.04.19.1.03.03.07.04.12.03.11-.02.16.08.24.12.06.02.11.07.17.1.14.07.29.13.44.19.13.05.26.1.38.16.09.05.18.11.26.17l.03-.04s.09.08.14.11c.23.1.47.2.7.31.21.09.41.18.61.28.11.06.21.13.31.21.02-.07.04-.14.05-.22.03-.16.04-.32.07-.48.02-.15.05-.29.08-.44.04-.2.09-.4.13-.6.06-.29.1-.58.16-.87.03-.16.08-.32.13-.48,0-.01,0-.02,0-.04,0-.13.04-.27.09-.39.02-.09.03-.18.03-.27,0-.03,0-.07.01-.1.03-.11.06-.23.07-.34.01-.04.03-.07.05-.11l.07.03c-.08-.22-.07-.41.09-.58-.06-.06-.07-.15-.01-.22.01-.01.03-.02.04-.03-.01-.02-.03-.04-.03-.06,0-.12.02-.24.07-.35.03-.09.05-.18.05-.28.02-.1.02-.2.04-.3.02-.04.04-.08.07-.11,0,0-.03-.01-.03-.02,0-.07-.02-.15.01-.21.09-.14.05-.31.09-.45.03-.13.06-.26.1-.39,0-.02.05-.03.08-.04-.07-.05-.08-.15-.04-.22.03-.08.06-.16.08-.24,0-.05,0-.1,0-.15.01-.11.03-.21.06-.32,0-.02.07-.03.1-.04s.08,0,.12,0c.07-.02.11,0,.12.08.02.11.03.23.05.34.02.11.05.22.08.33.03.08.03.16-.02.2.03.04.05.09.07.13.03.1.06.19.08.29.02.12.02.24.03.36,0,.02,0,.04.02.05.08.08.06.18.06.27,0,.01-.02.03-.02.02.02.05.04.1.06.15.03.13.05.26.08.38.04.18.07.36.11.56-.11-.04-.11.01-.1.08l.04-.06c.12.06.12.16-.02.27.01,0,.03.03.03.03.1-.06.09.02.11.08.04.1.06.21.05.32-.02.05-.04.09-.07.13l.11-.02c.02.08.04.15.06.24s.05.18.07.27c.04.16.08.32.11.48.04.18.07.36.1.54.04.19.08.38.11.57.04.21.06.43.11.65.03.09.06.18.1.27.01.03.01.06.01.09,0,.06-.03.11.02.16,0,0,0,.03,0,.05-.02.04-.01.08.02.11,0,0,0,0,0,0,.01,0,.02.02.02.04.01.09.02.19.03.28,0,.03.02.05.04.08l-.09.04c.08.05.12.13.12.22-.02.1.01.2.09.26.02-.03.05-.06.08-.09.06-.05.12-.09.18-.12.06-.02.12-.04.18-.05.02,0,.06,0,.07-.02.04-.08.1-.08.17-.03.03-.11.13-.18.25-.18.01,0,.02,0,.03-.02.09-.16.24-.17.39-.19.01,0,.03,0,.03,0,.05-.12.21-.08.27-.18.01-.02.04-.03.06-.05.08.07.13-.02.19-.05.12-.06.23-.12.35-.18.03-.02.07-.03.1-.04.15-.07.3-.13.44-.21.1-.05.2-.12.3-.17.18-.09.37-.17.55-.25.03-.02.06-.03.09-.04.11-.04.22-.06.33-.08.06,0,.11.04.1.12,0,.01,0,.02,0,.03.08.13.04.25-.03.37-.04.09-.07.19-.09.28-.02.07-.05.14-.08.21-.06.12-.11.25-.15.39-.02.08-.04.17-.08.25,0,.02-.01.03-.02.05-.03.04-.05.09-.05.14-.02.1-.05.19-.09.28-.07.18-.17.35-.21.53-.04.16-.13.3-.17.45-.03.12-.06.24-.11.35-.08.19-.15.38-.23.57-.03.07-.05.14-.08.2,0,.03-.02.05-.03.07s-.02.05-.03.08c-.02.05-.04.09-.05.14-.03.12-.07.24-.12.35-.06.12-.11.24-.15.37,0,.03-.04.05-.08.1.06.02.11.03.16.05.03,0,.06.01.09.02.09.02.18.03.27.05.02,0,.03.02.04.02.04.01.08.02.12.02.1,0,.2,0,.29.02.08.01.17.03.25.05.07.02.14.04.22.06l-.04.04v.02s.06-.04.09-.05c.02-.01.05-.02.08-.01.03.08.11.05.16.06.18.03.37.04.56.08.13.02.25.06.38.09.1.02.2.03.3.06.06.02.12.02.17.02.03,0,.06,0,.08.02.08.08.18.05.26.05.14.01.27.04.4.08.03,0,.08.06.11,0,0,0,.02,0,.03,0,.05.02.09.05.14,0h.03c.11.02.22.04.33.06.11.03.22.05.33.04,0,0,.02,0,.03,0,.16.09.35.08.52.11.16.03.33.05.49.08s.32.07.47.11c.08.02.17.04.25.06.05,0,.1.01.15.03.06.04.12,0,.18.01.08.01.16.03.24.05.11.02.22.05.33.08.12.03.21.13.22.25,0,.04-.11.14-.17.15-.22.03-.44.06-.67.09-.17.03-.34.06-.51.08-.04,0-.09,0-.13,0-.14.02-.29.03-.43.05,0,0-.02,0-.03,0-.21.09-.44.03-.65.1s-.44.04-.66.08c-.19.03-.38.07-.57.1-.09.02-.18.03-.27.04s-.19.02-.28.03c-.14.02-.29.03-.43.04-.06,0-.13.03-.19.04-.18.03-.36.06-.54.09-.02,0-.03,0-.05,0-.07-.05-.13-.02-.2.01-.02.01-.05.02-.08.02-.1,0-.2.01-.29.03-.07,0-.13.03-.2.04v.02l-.13-.11s-.08.07-.13.1c-.02.02-.05.03-.08.02-.1-.03-.19,0-.28.02-.07,0-.13.02-.2.02-.01,0-.02-.03-.03-.04-.1.06-.19.1-.31.07-.05-.01-.12.03-.18.04-.21.02-.21.02-.15.23.06.18.12.36.18.55.02.08.05.15.07.23,0,.03,0,.06,0,.09,0,0,.02,0,.03,0,.04.09.08.18.09.27,0,.03.01.07.03.1.01.06.04.12.06.19.02.06.04.12.07.19.06.15.11.31.14.48.03.09.07.17.1.25.05.14.09.28.13.42.02.06.04.12.06.19.03.09.05.19.08.28.04.15.09.31.14.46.06.18.15.35.17.55.02.08.05.16.08.23.04.12.07.23.09.35.02.11-.08.15-.14.21-.2-.09-.4-.18-.6-.28-.31-.15-.61-.3-.91-.45-.16-.08-.32-.16-.49-.24-.09-.04-.18-.08-.27-.13-.07-.04-.13-.08-.19-.12Z"/><path class="cls-2" d="M31.39,325.78c-.08.03-.23-.05-.29-.17h-.04s-.06-.01-.08-.02c-.03,0-.06-.01-.08-.02-.27-.13-.54-.27-.82-.4-.02,0-.05-.02-.07-.02-.02.09-.04.18-.05.26-.02.2-.04.4-.06.6,0,0,0,.02,0,.03-.11.11-.05.26-.08.38-.04.16-.08.32-.11.49,0,.05-.01.09,0,.14,0,.06.02.12-.05.15,0,0,0,.03,0,.04,0,.06,0,.11,0,.17-.02.12-.06.24-.08.36-.02.09,0,.19-.02.29,0,.08-.03.14-.05.22-.02.09-.04.19-.06.28s-.04.2-.06.3c0,.02-.02.05-.04.07.05.03.05.06.02.13-.03.11-.05.22-.05.33,0,.03,0,.06-.01.08-.02.08-.03.16-.05.24-.05.21-.06.42-.1.63-.06.23-.07.48-.1.72,0,.07-.03.13-.04.2-.02.13-.04.26-.07.4-.01.07-.04.14-.05.22,0,.03,0,.07,0,.1l-.04.02c.07.12,0,.23-.02.35s-.05.21-.07.32c-.01.09-.02.18-.02.27,0,.02,0,.04,0,.05-.09.17-.07.36-.1.54-.01.06-.13.2-.16.18-.07-.04-.12-.1-.16-.17-.04-.11-.05-.22-.05-.34,0-.07-.02-.15-.06-.21-.02-.05-.02-.11-.01-.16,0-.27-.11-.51-.14-.78-.03-.24-.1-.47-.1-.72,0-.14-.06-.29-.09-.43,0-.04,0-.08,0-.12,0-.06-.02-.12-.03-.19s-.03-.12-.04-.18-.02-.13-.03-.19c-.03-.11-.05-.23-.05-.35,0-.08-.05-.14-.04-.21.02-.09-.03-.14-.05-.21-.02-.09-.02-.18-.04-.26,0-.05-.02-.1-.03-.15,0-.03.01-.07.03-.1-.02-.03-.03-.05-.04-.08-.02-.1-.02-.19-.04-.29-.03-.15-.06-.29-.09-.44-.02-.07-.03-.14-.04-.21-.02-.09-.03-.19-.04-.28-.03-.16-.06-.32-.09-.47-.05-.28-.1-.55-.16-.82-.03-.12-.07-.23-.1-.35,0,0,0,0,0,0,.06-.1-.02-.2-.02-.3-.01-.15-.03-.29-.05-.44,0-.07-.06-.06-.09-.04-.07.03-.13.08-.2.11-.2.1-.4.19-.6.28-.03,0-.07.01-.1.01v.04s-.07-.02-.07-.02c-.09.1-.18.2-.34.16,0,.09-.09.11-.15.13s-.14.06-.2.1c-.13.07-.26.14-.39.2-.2.1-.39.2-.59.29-.16.08-.32.15-.48.23-.18.08-.35.15-.53.23-.01,0-.02.02-.03.03-.19-.14-.16-.17-.1-.37.04-.14.08-.29.11-.43.03-.12.08-.23.1-.35.04-.17.12-.31.17-.47.08-.22.12-.45.19-.67.03-.1.09-.19.12-.29.02-.05,0-.11.02-.16.02-.04.04-.09.07-.13,0-.01.01-.02.02-.04.02-.17.06-.34.13-.49.02-.04.03-.08.03-.12,0-.06.04-.08.09-.06-.04-.06-.03-.22.03-.26.05-.03,0-.03,0-.05,0-.03,0-.06.01-.09.02-.06.04-.11.06-.16.01-.02.04-.04.05-.05,0-.02-.02-.05-.02-.07.06-.19.14-.38.2-.57.04-.12.07-.25.09-.38,0-.02-.06-.06-.1-.06-.09-.02-.18-.03-.26-.04-.03,0-.07.02-.09.01-.07-.02-.14-.04-.19-.05-.07,0-.14,0-.21,0-.08-.01-.17-.03-.25-.05-.02,0-.03.01-.05.01-.05-.01-.12-.01-.14-.05-.05-.07-.09-.06-.15-.02-.04.03-.09.06-.15,0-.02-.01-.05-.02-.08-.02-.11-.01-.23-.02-.34-.03-.04-.01-.07-.02-.1-.04-.04-.01-.08-.03-.11-.02-.13.06-.25-.03-.37-.03-.11,0-.22-.01-.33-.03-.15-.02-.29-.06-.44-.08-.03,0-.07-.01-.1-.02-.11,0-.21-.01-.32-.03s-.23-.05-.34-.08c-.04,0-.09,0-.13,0-.09,0-.18-.01-.27-.03-.04,0-.07-.04-.11-.04s-.09,0-.14,0c-.13,0-.27,0-.4-.02-.17-.02-.33-.06-.5-.08-.14-.02-.27-.03-.41-.05-.11-.02-.21-.04-.32-.05-.14-.02-.28-.04-.43-.06-.29-.04-.58-.08-.87-.12-.08,0-.15-.06-.17-.14-.02-.09.03-.17.11-.22.08-.05.17-.07.26-.08.1-.01.21-.04.31-.07.06-.01.12-.07.19,0,0,0,.03,0,.04-.01.1-.04.2-.06.31-.06.08-.02.17-.04.25-.07.04-.02.09-.03.13-.03.19-.02.38-.03.57-.05.04-.01.08-.02.11-.04.08-.02.15-.04.23-.07.04-.02.08,0,.1.03,0,0,0,0,0,0,0,.01.09,0,.09-.02.01-.05.06-.08.11-.08.1-.01.21-.02.31-.04h.04c.08-.03.14-.1.23-.04.02.01.07-.02.1-.04.05-.03.1-.04.12.04l.13-.08.04.07s.1-.08.14-.08c.12,0,.23-.11.36-.03,0,0,.05-.03.08-.05.05.03.12.02.15-.03.02-.02.05-.03.08-.02.13.03.22-.05.34-.08.1-.02.2-.02.3-.04.11-.02.22-.05.34-.08.02,0,.05-.01.07-.02l.28-.03s.08,0,.11-.01c.06,0,.12-.02.15-.07,0,0,.03,0,.06,0v.08h.1s-.04-.06-.04-.06c.14-.03.27-.05.4-.08.06-.02.12-.03.18-.04.07,0,.13,0,.2.01.02,0,.05.02.05,0,.08-.09.2-.05.29-.08.06-.02.13-.02.2-.04.03-.01.06-.03.09-.05-.05-.13-.1-.25-.14-.37-.07-.17-.13-.34-.19-.51-.01-.04-.03-.07-.04-.11-.03-.06-.05-.11-.08-.17-.05-.11-.1-.22-.15-.34-.02-.06-.04-.11-.06-.17-.05-.13-.1-.25-.14-.38-.02-.07-.03-.13-.06-.2-.04-.11-.1-.22-.14-.34-.02-.05-.01-.11-.03-.15-.09-.24-.21-.47-.27-.72-.03-.13-.1-.23-.14-.35s-.09-.26-.13-.39c-.02-.07-.05-.14-.08-.21-.04-.12-.09-.25-.13-.37-.02-.06-.05-.13-.08-.19-.03-.05-.03-.12,0-.17.02-.03,0-.07.02-.1.03-.04.08-.1.11-.1.1,0,.2.03.3.06.08.03.06.11.02.16.07-.01.13-.02.2-.03.08,0,.15.04.19.1.03.03.07.04.12.03.11-.02.16.08.24.12.06.02.11.07.17.1.14.07.29.13.44.19.13.05.26.1.38.16.09.05.18.11.26.17l.03-.04s.09.08.14.11c.23.1.47.2.7.31.21.09.41.18.61.28.11.06.21.13.31.21.02-.07.04-.14.05-.22.03-.16.04-.32.07-.48.02-.15.05-.29.08-.44.04-.2.09-.4.13-.6.06-.29.1-.58.16-.87.03-.16.08-.32.13-.48,0-.01,0-.02,0-.04,0-.13.04-.27.09-.39.02-.09.03-.18.03-.27,0-.03,0-.07.01-.1.03-.11.06-.23.07-.34.01-.04.03-.07.05-.11l.07.03c-.08-.22-.07-.41.09-.58-.06-.06-.07-.15-.01-.22.01-.01.03-.02.04-.03-.01-.02-.03-.04-.03-.06,0-.12.02-.24.07-.35.03-.09.05-.18.05-.28.02-.1.02-.2.04-.3.02-.04.04-.08.07-.11,0,0-.03-.01-.03-.02,0-.07-.02-.15.01-.21.09-.14.05-.31.09-.45.03-.13.06-.26.1-.39,0-.02.05-.03.08-.04-.07-.05-.08-.15-.04-.22.03-.08.06-.16.08-.24,0-.05,0-.1,0-.15.01-.11.03-.21.06-.32,0-.02.07-.03.1-.04s.08,0,.12,0c.07-.02.11,0,.12.08.02.11.03.23.05.34.02.11.05.22.08.33.03.08.03.16-.02.2.03.04.05.09.07.13.03.1.06.19.08.29.02.12.02.24.03.36,0,.02,0,.04.02.05.08.08.06.18.06.27,0,.01-.02.03-.02.02.02.05.04.1.06.15.03.13.05.26.08.38.04.18.07.36.11.56-.11-.04-.11.01-.1.08l.04-.06c.12.06.12.16-.02.27.01,0,.03.03.03.03.1-.06.09.02.11.08.04.1.06.21.05.32-.02.05-.04.09-.07.13l.11-.02c.02.08.04.15.06.24s.05.18.07.27c.04.16.08.32.11.48.04.18.07.36.1.54.04.19.08.38.11.57.04.21.06.43.11.65.03.09.06.18.1.27.01.03.01.06.01.09,0,.06-.03.11.02.16,0,0,0,.03,0,.05-.02.04-.01.08.02.11,0,0,0,0,0,0,.01,0,.02.02.02.04.01.09.02.19.03.28,0,.03.02.05.04.08l-.09.04c.08.05.12.13.12.22-.02.1.01.2.09.26.02-.03.05-.06.08-.09.06-.05.12-.09.18-.12.06-.02.12-.04.18-.05.02,0,.06,0,.07-.02.04-.08.1-.08.17-.03.03-.11.13-.18.25-.18.01,0,.02,0,.03-.02.09-.16.24-.17.39-.19.01,0,.03,0,.03,0,.05-.12.21-.08.27-.18.01-.02.04-.03.06-.05.08.07.13-.02.19-.05.12-.06.23-.12.35-.18.03-.02.07-.03.1-.04.15-.07.3-.13.44-.21.1-.05.2-.12.3-.17.18-.09.37-.17.55-.25.03-.02.06-.03.09-.04.11-.04.22-.06.33-.08.06,0,.11.04.1.12,0,.01,0,.02,0,.03.08.13.04.25-.03.37-.04.09-.07.19-.09.28-.02.07-.05.14-.08.21-.06.12-.11.25-.15.39-.02.08-.04.17-.08.25,0,.02-.01.03-.02.05-.03.04-.05.09-.05.14-.02.1-.05.19-.09.28-.07.18-.17.35-.21.53-.04.16-.13.3-.17.45-.03.12-.06.24-.11.35-.08.19-.15.38-.23.57-.03.07-.05.14-.08.2,0,.03-.02.05-.03.07s-.02.05-.03.08c-.02.05-.04.09-.05.14-.03.12-.07.24-.12.35-.06.12-.11.24-.15.37,0,.03-.04.05-.08.1.06.02.11.03.16.05.03,0,.06.01.09.02.09.02.18.03.27.05.02,0,.03.02.04.02.04.01.08.02.12.02.1,0,.2,0,.29.02.08.01.17.03.25.05.07.02.14.04.22.06l-.04.04v.02s.06-.04.09-.05c.02-.01.05-.02.08-.01.03.08.11.05.16.06.18.03.37.04.56.08.13.02.25.06.38.09.1.02.2.03.3.06.06.02.12.02.17.02.03,0,.06,0,.08.02.08.08.18.05.26.05.14.01.27.04.4.08.03,0,.08.06.11,0,0,0,.02,0,.03,0,.05.02.09.05.14,0h.03c.11.02.22.04.33.06.11.03.22.05.33.04,0,0,.02,0,.03,0,.16.09.35.08.52.11.16.03.33.05.49.08s.32.07.47.11c.08.02.17.04.25.06.05,0,.1.01.15.03.06.04.12,0,.18.01.08.01.16.03.24.05.11.02.22.05.33.08.12.03.21.13.22.25,0,.04-.11.14-.17.15-.22.03-.44.06-.67.09-.17.03-.34.06-.51.08-.04,0-.09,0-.13,0-.14.02-.29.03-.43.05,0,0-.02,0-.03,0-.21.09-.44.03-.65.1s-.44.04-.66.08c-.19.03-.38.07-.57.1-.09.02-.18.03-.27.04s-.19.02-.28.03c-.14.02-.29.03-.43.04-.06,0-.13.03-.19.04-.18.03-.36.06-.54.09-.02,0-.03,0-.05,0-.07-.05-.13-.02-.2.01-.02.01-.05.02-.08.02-.1,0-.2.01-.29.03-.07,0-.13.03-.2.04v.02l-.13-.11s-.08.07-.13.1c-.02.02-.05.03-.08.02-.1-.03-.19,0-.28.02-.07,0-.13.02-.2.02-.01,0-.02-.03-.03-.04-.1.06-.19.1-.31.07-.05-.01-.12.03-.18.04-.21.02-.21.02-.15.23.06.18.12.36.18.55.02.08.05.15.07.23,0,.03,0,.06,0,.09,0,0,.02,0,.03,0,.04.09.08.18.09.27,0,.03.01.07.03.1.01.06.04.12.06.19.02.06.04.12.07.19.06.15.11.31.14.48.03.09.07.17.1.25.05.14.09.28.13.42.02.06.04.12.06.19.03.09.05.19.08.28.04.15.09.31.14.46.06.18.15.35.17.55.02.08.05.16.08.23.04.12.07.23.09.35.02.11-.08.15-.14.21-.2-.09-.4-.18-.6-.28-.31-.15-.61-.3-.91-.45-.16-.08-.32-.16-.49-.24-.09-.04-.18-.08-.27-.13-.07-.04-.13-.08-.19-.12Z"/><path class="cls-2" d="M214.5,325.78c-.08.03-.23-.05-.29-.17h-.04s-.06-.01-.08-.02c-.03,0-.06-.01-.08-.02-.27-.13-.54-.27-.82-.4-.02,0-.05-.02-.07-.02-.02.09-.04.18-.05.26-.02.2-.04.4-.06.6,0,0,0,.02,0,.03-.11.11-.05.26-.08.38-.04.16-.08.32-.11.49,0,.05-.01.09,0,.14,0,.06.02.12-.05.15,0,0,0,.03,0,.04,0,.06,0,.11,0,.17-.02.12-.06.24-.08.36-.02.09,0,.19-.02.29,0,.08-.03.14-.05.22-.02.09-.04.19-.06.28s-.04.2-.06.3c0,.02-.02.05-.04.07.05.03.05.06.02.13-.03.11-.05.22-.05.33,0,.03,0,.06-.01.08-.02.08-.03.16-.05.24-.05.21-.06.42-.1.63-.06.23-.07.48-.1.72,0,.07-.03.13-.04.2-.02.13-.04.26-.07.4-.01.07-.04.14-.05.22,0,.03,0,.07,0,.1l-.04.02c.07.12,0,.23-.02.35s-.05.21-.07.32c-.01.09-.02.18-.02.27,0,.02,0,.04,0,.05-.09.17-.07.36-.1.54-.01.06-.13.2-.16.18-.07-.04-.12-.1-.16-.17-.04-.11-.05-.22-.05-.34,0-.07-.02-.15-.06-.21-.02-.05-.02-.11-.01-.16,0-.27-.11-.51-.14-.78-.03-.24-.1-.47-.1-.72,0-.14-.06-.29-.09-.43,0-.04,0-.08,0-.12,0-.06-.02-.12-.03-.19s-.03-.12-.04-.18-.02-.13-.03-.19c-.03-.11-.05-.23-.05-.35,0-.08-.05-.14-.04-.21.02-.09-.03-.14-.05-.21-.02-.09-.02-.18-.04-.26,0-.05-.02-.1-.03-.15,0-.03.01-.07.03-.1-.02-.03-.03-.05-.04-.08-.02-.1-.02-.19-.04-.29-.03-.15-.06-.29-.09-.44-.02-.07-.03-.14-.04-.21-.02-.09-.03-.19-.04-.28-.03-.16-.06-.32-.09-.47-.05-.28-.1-.55-.16-.82-.03-.12-.07-.23-.1-.35,0,0,0,0,0,0,.06-.1-.02-.2-.02-.3-.01-.15-.03-.29-.05-.44,0-.07-.06-.06-.09-.04-.07.03-.13.08-.2.11-.2.1-.4.19-.6.28-.03,0-.07.01-.1.01v.04s-.07-.02-.07-.02c-.09.1-.18.2-.34.16,0,.09-.09.11-.15.13s-.14.06-.2.1c-.13.07-.26.14-.39.2-.2.1-.39.2-.59.29-.16.08-.32.15-.48.23-.18.08-.35.15-.53.23-.01,0-.02.02-.03.03-.19-.14-.16-.17-.1-.37.04-.14.08-.29.11-.43.03-.12.08-.23.1-.35.04-.17.12-.31.17-.47.08-.22.12-.45.19-.67.03-.1.09-.19.12-.29.02-.05,0-.11.02-.16.02-.04.04-.09.07-.13,0-.01.01-.02.02-.04.02-.17.06-.34.13-.49.02-.04.03-.08.03-.12,0-.06.04-.08.09-.06-.04-.06-.03-.22.03-.26.05-.03,0-.03,0-.05,0-.03,0-.06.01-.09.02-.06.04-.11.06-.16.01-.02.04-.04.05-.05,0-.02-.02-.05-.02-.07.06-.19.14-.38.2-.57.04-.12.07-.25.09-.38,0-.02-.06-.06-.1-.06-.09-.02-.18-.03-.26-.04-.03,0-.07.02-.09.01-.07-.02-.14-.04-.19-.05-.07,0-.14,0-.21,0-.08-.01-.17-.03-.25-.05-.02,0-.03.01-.05.01-.05-.01-.12-.01-.14-.05-.05-.07-.09-.06-.15-.02-.04.03-.09.06-.15,0-.02-.01-.05-.02-.08-.02-.11-.01-.23-.02-.34-.03-.04-.01-.07-.02-.1-.04-.04-.01-.08-.03-.11-.02-.13.06-.25-.03-.37-.03-.11,0-.22-.01-.33-.03-.15-.02-.29-.06-.44-.08-.03,0-.07-.01-.1-.02-.11,0-.21-.01-.32-.03s-.23-.05-.34-.08c-.04,0-.09,0-.13,0-.09,0-.18-.01-.27-.03-.04,0-.07-.04-.11-.04s-.09,0-.14,0c-.13,0-.27,0-.4-.02-.17-.02-.33-.06-.5-.08-.14-.02-.27-.03-.41-.05-.11-.02-.21-.04-.32-.05-.14-.02-.28-.04-.43-.06-.29-.04-.58-.08-.87-.12-.08,0-.15-.06-.17-.14-.02-.09.03-.17.11-.22.08-.05.17-.07.26-.08.1-.01.21-.04.31-.07.06-.01.12-.07.19,0,0,0,.03,0,.04-.01.1-.04.2-.06.31-.06.08-.02.17-.04.25-.07.04-.02.09-.03.13-.03.19-.02.38-.03.57-.05.04-.01.08-.02.11-.04.08-.02.15-.04.23-.07.04-.02.08,0,.1.03,0,0,0,0,0,0,0,.01.09,0,.09-.02.01-.05.06-.08.11-.08.1-.01.21-.02.31-.04h.04c.08-.03.14-.1.23-.04.02.01.07-.02.1-.04.05-.03.1-.04.12.04l.13-.08.04.07s.1-.08.14-.08c.12,0,.23-.11.36-.03,0,0,.05-.03.08-.05.05.03.12.02.15-.03.02-.02.05-.03.08-.02.13.03.22-.05.34-.08.1-.02.2-.02.3-.04.11-.02.22-.05.34-.08.02,0,.05-.01.07-.02l.28-.03s.08,0,.11-.01c.06,0,.12-.02.15-.07,0,0,.03,0,.06,0v.08h.1s-.04-.06-.04-.06c.14-.03.27-.05.4-.08.06-.02.12-.03.18-.04.07,0,.13,0,.2.01.02,0,.05.02.05,0,.08-.09.2-.05.29-.08.06-.02.13-.02.2-.04.03-.01.06-.03.09-.05-.05-.13-.1-.25-.14-.37-.07-.17-.13-.34-.19-.51-.01-.04-.03-.07-.04-.11-.03-.06-.05-.11-.08-.17-.05-.11-.1-.22-.15-.34-.02-.06-.04-.11-.06-.17-.05-.13-.1-.25-.14-.38-.02-.07-.03-.13-.06-.2-.04-.11-.1-.22-.14-.34-.02-.05-.01-.11-.03-.15-.09-.24-.21-.47-.27-.72-.03-.13-.1-.23-.14-.35s-.09-.26-.13-.39c-.02-.07-.05-.14-.08-.21-.04-.12-.09-.25-.13-.37-.02-.06-.05-.13-.08-.19-.03-.05-.03-.12,0-.17.02-.03,0-.07.02-.1.03-.04.08-.1.11-.1.1,0,.2.03.3.06.08.03.06.11.02.16.07-.01.13-.02.2-.03.08,0,.15.04.19.1.03.03.07.04.12.03.11-.02.16.08.24.12.06.02.11.07.17.1.14.07.29.13.44.19.13.05.26.1.38.16.09.05.18.11.26.17l.03-.04s.09.08.14.11c.23.1.47.2.7.31.21.09.41.18.61.28.11.06.21.13.31.21.02-.07.04-.14.05-.22.03-.16.04-.32.07-.48.02-.15.05-.29.08-.44.04-.2.09-.4.13-.6.06-.29.1-.58.16-.87.03-.16.08-.32.13-.48,0-.01,0-.02,0-.04,0-.13.04-.27.09-.39.02-.09.03-.18.03-.27,0-.03,0-.07.01-.1.03-.11.06-.23.07-.34.01-.04.03-.07.05-.11l.07.03c-.08-.22-.07-.41.09-.58-.06-.06-.07-.15-.01-.22.01-.01.03-.02.04-.03-.01-.02-.03-.04-.03-.06,0-.12.02-.24.07-.35.03-.09.05-.18.05-.28.02-.1.02-.2.04-.3.02-.04.04-.08.07-.11,0,0-.03-.01-.03-.02,0-.07-.02-.15.01-.21.09-.14.05-.31.09-.45.03-.13.06-.26.1-.39,0-.02.05-.03.08-.04-.07-.05-.08-.15-.04-.22.03-.08.06-.16.08-.24,0-.05,0-.1,0-.15.01-.11.03-.21.06-.32,0-.02.07-.03.1-.04s.08,0,.12,0c.07-.02.11,0,.12.08.02.11.03.23.05.34.02.11.05.22.08.33.03.08.03.16-.02.2.03.04.05.09.07.13.03.1.06.19.08.29.02.12.02.24.03.36,0,.02,0,.04.02.05.08.08.06.18.06.27,0,.01-.02.03-.02.02.02.05.04.1.06.15.03.13.05.26.08.38.04.18.07.36.11.56-.11-.04-.11.01-.1.08l.04-.06c.12.06.12.16-.02.27.01,0,.03.03.03.03.1-.06.09.02.11.08.04.1.06.21.05.32-.02.05-.04.09-.07.13l.11-.02c.02.08.04.15.06.24s.05.18.07.27c.04.16.08.32.11.48.04.18.07.36.1.54.04.19.08.38.11.57.04.21.06.43.11.65.03.09.06.18.1.27.01.03.01.06.01.09,0,.06-.03.11.02.16,0,0,0,.03,0,.05-.02.04-.01.08.02.11,0,0,0,0,0,0,.01,0,.02.02.02.04.01.09.02.19.03.28,0,.03.02.05.04.08l-.09.04c.08.05.12.13.12.22-.02.1.01.2.09.26.02-.03.05-.06.08-.09.06-.05.12-.09.18-.12.06-.02.12-.04.18-.05.02,0,.06,0,.07-.02.04-.08.1-.08.17-.03.03-.11.13-.18.25-.18.01,0,.02,0,.03-.02.09-.16.24-.17.39-.19.01,0,.03,0,.03,0,.05-.12.21-.08.27-.18.01-.02.04-.03.06-.05.08.07.13-.02.19-.05.12-.06.23-.12.35-.18.03-.02.07-.03.1-.04.15-.07.3-.13.44-.21.1-.05.2-.12.3-.17.18-.09.37-.17.55-.25.03-.02.06-.03.09-.04.11-.04.22-.06.33-.08.06,0,.11.04.1.12,0,.01,0,.02,0,.03.08.13.04.25-.03.37-.04.09-.07.19-.09.28-.02.07-.05.14-.08.21-.06.12-.11.25-.15.39-.02.08-.04.17-.08.25,0,.02-.01.03-.02.05-.03.04-.05.09-.05.14-.02.1-.05.19-.09.28-.07.18-.17.35-.21.53-.04.16-.13.3-.17.45-.03.12-.06.24-.11.35-.08.19-.15.38-.23.57-.03.07-.05.14-.08.2,0,.03-.02.05-.03.07s-.02.05-.03.08c-.02.05-.04.09-.05.14-.03.12-.07.24-.12.35-.06.12-.11.24-.15.37,0,.03-.04.05-.08.1.06.02.11.03.16.05.03,0,.06.01.09.02.09.02.18.03.27.05.02,0,.03.02.04.02.04.01.08.02.12.02.1,0,.2,0,.29.02.08.01.17.03.25.05.07.02.14.04.22.06l-.04.04v.02s.06-.04.09-.05c.02-.01.05-.02.08-.01.03.08.11.05.16.06.18.03.37.04.56.08.13.02.25.06.38.09.1.02.2.03.3.06.06.02.12.02.17.02.03,0,.06,0,.08.02.08.08.18.05.26.05.14.01.27.04.4.08.03,0,.08.06.11,0,0,0,.02,0,.03,0,.05.02.09.05.14,0h.03c.11.02.22.04.33.06.11.03.22.05.33.04,0,0,.02,0,.03,0,.16.09.35.08.52.11.16.03.33.05.49.08s.32.07.47.11c.08.02.17.04.25.06.05,0,.1.01.15.03.06.04.12,0,.18.01.08.01.16.03.24.05.11.02.22.05.33.08.12.03.21.13.22.25,0,.04-.11.14-.17.15-.22.03-.44.06-.67.09-.17.03-.34.06-.51.08-.04,0-.09,0-.13,0-.14.02-.29.03-.43.05,0,0-.02,0-.03,0-.21.09-.44.03-.65.1s-.44.04-.66.08c-.19.03-.38.07-.57.1-.09.02-.18.03-.27.04s-.19.02-.28.03c-.14.02-.29.03-.43.04-.06,0-.13.03-.19.04-.18.03-.36.06-.54.09-.02,0-.03,0-.05,0-.07-.05-.13-.02-.2.01-.02.01-.05.02-.08.02-.1,0-.2.01-.29.03-.07,0-.13.03-.2.04v.02l-.13-.11s-.08.07-.13.1c-.02.02-.05.03-.08.02-.1-.03-.19,0-.28.02-.07,0-.13.02-.2.02-.01,0-.02-.03-.03-.04-.1.06-.19.1-.31.07-.05-.01-.12.03-.18.04-.21.02-.21.02-.15.23.06.18.12.36.18.55.02.08.05.15.07.23,0,.03,0,.06,0,.09,0,0,.02,0,.03,0,.04.09.08.18.09.27,0,.03.01.07.03.1.01.06.04.12.06.19.02.06.04.12.07.19.06.15.11.31.14.48.03.09.07.17.1.25.05.14.09.28.13.42.02.06.04.12.06.19.03.09.05.19.08.28.04.15.09.31.14.46.06.18.15.35.17.55.02.08.05.16.08.23.04.12.07.23.09.35.02.11-.08.15-.14.21-.2-.09-.4-.18-.6-.28-.31-.15-.61-.3-.91-.45-.16-.08-.32-.16-.49-.24-.09-.04-.18-.08-.27-.13-.07-.04-.13-.08-.19-.12Z"/><line class="cls-4" x1="9.94" y1="35.04" x2="230.06" y2="35.04"/><line class="cls-3" x1="9.94" y1="337.95" x2="230.06" y2="337.95"/></svg>