<?xml version="1.0" encoding="utf-8"?>
<!-- Generator: Adobe Illustrator 27.8.1, SVG Export Plug-In . SVG Version: 6.00 Build 0)  -->
<svg version="1.1" id="Layer_1" xmlns="http://www.w3.org/2000/svg" xmlns:xlink="http://www.w3.org/1999/xlink" x="0px" y="0px"
	 viewBox="0 0 107 69" style="enable-background:new 0 0 107 69;" xml:space="preserve">
<style type="text/css">
	.st0{fill:#7F68FF;}
</style>
<g>
	<path class="st0" d="M9,17.3c2.9,3.8,7,6.7,12.1,8.6l7.9,2.9c3.1,1.2,5.2,2.6,6.4,4.2c1.2,1.6,1.8,3.5,1.8,5.8
		c0,2.8-0.9,4.9-2.8,6.5c-1.9,1.5-4,2.3-6.3,2.3c-3.1,0-5.3-1-6.5-2.9s-2-4-2.3-6.3H3.8C3.9,42.4,4.6,46,6,49s3.2,5.6,5.4,7.6
		s4.7,3.6,7.6,4.6c2.9,1.1,5.9,1.6,9.1,1.6c3.5,0,6.8-0.6,9.8-1.9c3-1.3,5.6-3,7.7-5.3c2.1-2.2,3.8-4.8,5.1-7.8
		c1.2-2.9,1.8-6.1,1.8-9.5c0-4.8-1.2-9.2-3.4-13.3c-2.3-4.1-6.5-7.3-12.6-9.6l-9.6-3.8c-3.1-1.2-5-2.5-5.8-3.9
		c-0.3-0.5-0.5-1.1-0.7-1.7H4.7C5.1,10.3,6.5,14.1,9,17.3z" shape-rendering="auto"/>
	<path class="st0" d="M99,51.4c-2.3-4.1-6.5-7.3-12.6-9.6L76.8,38c-3.1-1.2-5-2.5-5.8-3.9c-0.7-1.4-1.1-2.9-1.1-4.4
		c0-2.1,0.7-4,2.1-5.7s3.4-2.5,5.9-2.5c2.1,0,4,0.7,5.7,2.1s2.5,3.5,2.6,6.3h15.4c0-3.3-0.6-6.4-1.8-9.4c-1.1-3.1-2.7-5.6-4.7-7.7
		s-4.5-3.7-7.3-5C85,6.6,81.9,6,78.6,6s-6.4,0.6-9.3,1.8s-5.4,2.8-7.6,4.9c-2.2,2.1-3.9,4.6-5.2,7.5s-1.9,6.1-1.9,9.5
		c0,5.5,1.5,10.1,4.4,13.9c2.9,3.8,7,6.7,12.1,8.6l7.9,2.9c3.1,1.2,5.2,2.6,6.4,4.2c0.8,1.1,1.3,2.3,1.5,3.7h15.6
		C102.2,58.8,101,54.9,99,51.4z" shape-rendering="auto"/>
</g>
</svg>
