<svg width="761" height="405" viewBox="0 0 761 405" fill="none" xmlns="http://www.w3.org/2000/svg">
<g clip-path="url(#clip0_214_2)">
<path d="M78.8421 57.8913C73.2087 57.8913 67.8051 55.017 64.586 50.3033C58.7226 47.3141 55.0436 41.3357 55.0436 34.8975C55.0436 25.3551 62.8615 17.5372 72.4039 17.4222C73.2087 17.4222 74.0134 17.4222 74.8182 17.5372C77.6925 11.6738 83.6708 7.87979 90.339 7.87979C98.0419 7.87979 104.825 13.0534 106.895 20.4114C113.333 23.0557 117.587 29.264 117.587 36.3921C117.587 45.9345 109.884 53.6374 100.341 53.6374C97.4671 53.6374 94.7078 52.9476 92.1785 51.568C88.8444 55.4769 84.0157 57.7763 78.8421 57.8913ZM72.4039 22.5958C65.7357 22.7108 60.2172 28.1143 60.2172 34.8975C60.2172 39.6112 63.0914 43.98 67.3452 45.9345C67.8051 46.1644 68.15 46.5093 68.4949 46.9692C70.6793 50.5332 74.5883 52.7177 78.7272 52.7177C82.981 52.6027 86.89 50.4183 89.1893 46.8542C89.5342 46.2794 90.2241 45.8195 90.9139 45.7046C91.6037 45.5896 92.4085 45.7046 92.9833 46.1644C95.1677 47.774 97.697 48.6937 100.341 48.6937C107.01 48.6937 112.413 43.2902 112.413 36.622C112.413 31.2185 108.964 26.6197 103.905 25.0102C102.986 24.7802 102.296 23.9754 102.181 23.0557C101.031 17.4222 96.0875 13.2833 90.339 13.2833C85.1654 13.2833 80.5667 16.6174 78.8421 21.5611C78.3823 22.8257 77.0026 23.6305 75.738 23.2856C74.5883 22.7108 73.4386 22.5958 72.4039 22.5958Z" fill="#92F2CE" fill-opacity="0.81"/>
<path d="M96.3174 71.4576C92.1786 71.4576 88.7295 68.0085 88.7295 63.8696C88.7295 59.7307 92.1786 56.2817 96.3174 56.2817C100.456 56.2817 103.905 59.7307 103.905 63.8696C103.905 68.0085 100.571 71.4576 96.3174 71.4576ZM96.3174 61.4553C94.9378 61.4553 93.9031 62.49 93.9031 63.8696C93.9031 65.2493 94.9378 66.284 96.3174 66.284C97.6971 66.284 98.7318 65.2493 98.7318 63.8696C98.8468 62.49 97.6971 61.4553 96.3174 61.4553Z" fill="#92F2CE" fill-opacity="0.81"/>
<path d="M109.999 79.8503C106.55 79.8503 103.79 77.0911 103.79 73.642C103.79 70.1929 106.55 67.4337 109.999 67.4337C111.723 67.4337 113.333 68.1235 114.483 69.2732C115.632 70.4229 116.207 72.0324 116.207 73.757C116.207 73.8719 116.207 73.8719 116.207 73.9869C115.977 77.206 113.333 79.8503 109.999 79.8503ZM109.999 72.6073C109.424 72.6073 108.964 73.0672 108.964 73.642C108.964 74.2169 109.424 74.6767 109.999 74.6767C110.574 74.6767 110.918 74.2169 111.033 73.642C111.033 73.2971 110.918 73.1821 110.804 73.0672C110.689 72.8372 110.344 72.6073 109.999 72.6073Z" fill="#92F2CE" fill-opacity="0.81"/>
</g>
<path d="M29.3171 260.237C23.6836 260.237 18.28 257.362 15.0609 252.649C9.1975 249.659 5.51849 243.681 5.51849 237.243C5.51849 227.7 13.3364 219.882 22.8788 219.767C23.6836 219.767 24.4884 219.767 25.2931 219.882C28.1674 214.019 34.1457 210.225 40.8139 210.225C48.5169 210.225 55.3 215.399 57.3695 222.757C63.8077 225.401 68.0616 231.609 68.0616 238.737C68.0616 248.28 60.3587 255.983 50.8162 255.983C47.942 255.983 45.1828 255.293 42.6534 253.913C39.3193 257.822 34.4907 260.122 29.3171 260.237ZM22.8788 224.941C16.2106 225.056 10.6921 230.46 10.6921 237.243C10.6921 241.956 13.5663 246.325 17.8202 248.28C18.28 248.51 18.6249 248.855 18.9699 249.314C21.1543 252.878 25.0632 255.063 29.2021 255.063C33.4559 254.948 37.3649 252.764 39.6643 249.199C40.0092 248.625 40.699 248.165 41.3888 248.05C42.0786 247.935 42.8834 248.05 43.4582 248.51C45.6426 250.119 48.172 251.039 50.8162 251.039C57.4844 251.039 62.888 245.635 62.888 238.967C62.888 233.564 59.4389 228.965 54.3803 227.355C53.4605 227.125 52.7707 226.321 52.6557 225.401C51.506 219.767 46.5624 215.629 40.8139 215.629C35.6403 215.629 31.0416 218.963 29.3171 223.906C28.8572 225.171 27.4776 225.976 26.2129 225.631C25.0632 225.056 23.9135 224.941 22.8788 224.941Z" fill="#92F2CE" fill-opacity="0.81"/>
<path d="M46.7923 273.803C42.6534 273.803 39.2044 270.354 39.2044 266.215C39.2044 262.076 42.6534 258.627 46.7923 258.627C50.9312 258.627 54.3803 262.076 54.3803 266.215C54.3803 270.354 51.0462 273.803 46.7923 273.803ZM46.7923 263.801C45.4127 263.801 44.378 264.835 44.378 266.215C44.378 267.595 45.4127 268.629 46.7923 268.629C48.172 268.629 49.2067 267.595 49.2067 266.215C49.3216 264.835 48.172 263.801 46.7923 263.801Z" fill="#92F2CE" fill-opacity="0.81"/>
<path d="M60.4736 282.196C57.0245 282.196 54.2653 279.436 54.2653 275.987C54.2653 272.538 57.0245 269.779 60.4736 269.779C62.1981 269.779 63.8077 270.469 64.9574 271.618C66.1071 272.768 66.6819 274.378 66.6819 276.102C66.6819 276.217 66.6819 276.217 66.6819 276.332C66.452 279.551 63.8077 282.196 60.4736 282.196ZM60.4736 274.953C59.8988 274.953 59.4389 275.412 59.4389 275.987C59.4389 276.562 59.8988 277.022 60.4736 277.022C61.0485 277.022 61.3934 276.562 61.5083 275.987C61.5083 275.642 61.3934 275.527 61.2784 275.412C61.1634 275.182 60.8185 274.953 60.4736 274.953Z" fill="#92F2CE" fill-opacity="0.81"/>
<g clip-path="url(#clip1_214_2)">
<path d="M434.007 57.8913C428.374 57.8913 422.97 55.017 419.751 50.3033C413.888 47.3141 410.209 41.3357 410.209 34.8975C410.209 25.3551 418.027 17.5372 427.569 17.4222C428.374 17.4222 429.179 17.4222 429.984 17.5372C432.858 11.6738 438.836 7.87979 445.504 7.87979C453.207 7.87979 459.99 13.0534 462.06 20.4114C468.498 23.0557 472.752 29.264 472.752 36.3921C472.752 45.9345 465.049 53.6374 455.507 53.6374C452.632 53.6374 449.873 52.9476 447.344 51.568C444.01 55.4769 439.181 57.7763 434.007 57.8913ZM427.569 22.5958C420.901 22.7108 415.383 28.1143 415.383 34.8975C415.383 39.6112 418.257 43.98 422.511 45.9345C422.97 46.1644 423.315 46.5093 423.66 46.9692C425.845 50.5332 429.754 52.7177 433.893 52.7177C438.146 52.6027 442.055 50.4183 444.355 46.8542C444.7 46.2794 445.389 45.8195 446.079 45.7046C446.769 45.5896 447.574 45.7046 448.149 46.1644C450.333 47.774 452.862 48.6937 455.507 48.6937C462.175 48.6937 467.578 43.2902 467.578 36.622C467.578 31.2185 464.129 26.6197 459.071 25.0102C458.151 24.7802 457.461 23.9754 457.346 23.0557C456.196 17.4222 451.253 13.2833 445.504 13.2833C440.331 13.2833 435.732 16.6174 434.007 21.5611C433.548 22.8257 432.168 23.6305 430.903 23.2856C429.754 22.7108 428.604 22.5958 427.569 22.5958Z" fill="#92F2CE" fill-opacity="0.81"/>
<path d="M451.483 71.4576C447.344 71.4576 443.895 68.0085 443.895 63.8696C443.895 59.7307 447.344 56.2817 451.483 56.2817C455.622 56.2817 459.071 59.7307 459.071 63.8696C459.071 68.0085 455.737 71.4576 451.483 71.4576ZM451.483 61.4553C450.103 61.4553 449.068 62.49 449.068 63.8696C449.068 65.2493 450.103 66.284 451.483 66.284C452.862 66.284 453.897 65.2493 453.897 63.8696C454.012 62.49 452.862 61.4553 451.483 61.4553Z" fill="#92F2CE" fill-opacity="0.81"/>
<path d="M465.164 79.8503C461.715 79.8503 458.956 77.0911 458.956 73.642C458.956 70.1929 461.715 67.4337 465.164 67.4337C466.889 67.4337 468.498 68.1235 469.648 69.2732C470.798 70.4229 471.372 72.0324 471.372 73.757C471.372 73.8719 471.372 73.8719 471.372 73.9869C471.142 77.206 468.498 79.8503 465.164 79.8503ZM465.164 72.6073C464.589 72.6073 464.129 73.0672 464.129 73.642C464.129 74.2169 464.589 74.6767 465.164 74.6767C465.739 74.6767 466.084 74.2169 466.199 73.642C466.199 73.2971 466.084 73.1821 465.969 73.0672C465.854 72.8372 465.509 72.6073 465.164 72.6073Z" fill="#92F2CE" fill-opacity="0.81"/>
</g>
<path d="M384.482 260.237C378.849 260.237 373.445 257.362 370.226 252.649C364.363 249.659 360.684 243.681 360.684 237.243C360.684 227.7 368.502 219.882 378.044 219.767C378.849 219.767 379.654 219.767 380.459 219.882C383.333 214.019 389.311 210.225 395.979 210.225C403.682 210.225 410.465 215.399 412.535 222.757C418.973 225.401 423.227 231.609 423.227 238.737C423.227 248.28 415.524 255.983 405.982 255.983C403.107 255.983 400.348 255.293 397.819 253.913C394.485 257.822 389.656 260.122 384.482 260.237ZM378.044 224.941C371.376 225.056 365.857 230.46 365.857 237.243C365.857 241.956 368.732 246.325 372.986 248.28C373.445 248.51 373.79 248.855 374.135 249.314C376.32 252.878 380.229 255.063 384.367 255.063C388.621 254.948 392.53 252.764 394.83 249.199C395.175 248.625 395.864 248.165 396.554 248.05C397.244 247.935 398.049 248.05 398.624 248.51C400.808 250.119 403.337 251.039 405.982 251.039C412.65 251.039 418.053 245.635 418.053 238.967C418.053 233.564 414.604 228.965 409.546 227.355C408.626 227.125 407.936 226.321 407.821 225.401C406.671 219.767 401.728 215.629 395.979 215.629C390.806 215.629 386.207 218.963 384.482 223.906C384.023 225.171 382.643 225.976 381.378 225.631C380.229 225.056 379.079 224.941 378.044 224.941Z" fill="#92F2CE" fill-opacity="0.81"/>
<path d="M401.958 273.803C397.819 273.803 394.37 270.354 394.37 266.215C394.37 262.076 397.819 258.627 401.958 258.627C406.097 258.627 409.546 262.076 409.546 266.215C409.546 270.354 406.212 273.803 401.958 273.803ZM401.958 263.801C400.578 263.801 399.543 264.835 399.543 266.215C399.543 267.595 400.578 268.629 401.958 268.629C403.337 268.629 404.372 267.595 404.372 266.215C404.487 264.835 403.337 263.801 401.958 263.801Z" fill="#92F2CE" fill-opacity="0.81"/>
<path d="M415.639 282.196C412.19 282.196 409.431 279.436 409.431 275.987C409.431 272.538 412.19 269.779 415.639 269.779C417.364 269.779 418.973 270.469 420.123 271.618C421.273 272.768 421.847 274.378 421.847 276.102C421.847 276.217 421.847 276.217 421.847 276.332C421.617 279.551 418.973 282.196 415.639 282.196ZM415.639 274.953C415.064 274.953 414.604 275.412 414.604 275.987C414.604 276.562 415.064 277.022 415.639 277.022C416.214 277.022 416.559 276.562 416.674 275.987C416.674 275.642 416.559 275.527 416.444 275.412C416.329 275.182 415.984 274.953 415.639 274.953Z" fill="#92F2CE" fill-opacity="0.81"/>
<path d="M226.197 105.232L216.884 95.9194C212.171 91.2057 204.813 90.7458 199.524 94.5398L194.006 89.0213C195.615 86.8369 196.535 84.1926 196.535 81.3184C196.535 77.7543 195.155 74.3053 192.626 71.776L183.313 62.4635C178.14 57.2899 169.632 57.2899 164.344 62.4635C161.929 65.1078 160.55 68.4419 160.55 72.0059C160.55 75.5699 161.929 78.904 164.459 81.4333L173.656 90.7458C176.3 93.3901 179.749 94.6548 183.084 94.6548C185.613 94.6548 188.027 93.965 190.212 92.5853L195.96 98.3338C194.58 100.403 193.891 102.933 193.891 105.462C193.891 109.026 195.27 112.36 197.8 114.889L206.997 124.202C209.641 126.846 213.09 128.111 216.425 128.111C219.874 128.111 223.323 126.846 225.852 124.202C228.381 121.672 229.761 118.338 229.761 114.774C230.106 111.21 228.726 107.876 226.197 105.232ZM177.335 87.0668L168.138 77.7543C166.528 76.1448 165.723 74.0753 165.723 71.8909C165.723 69.7065 166.528 67.6371 168.138 66.0275C169.747 64.418 171.817 63.6132 174.001 63.6132C176.07 63.6132 178.255 64.418 179.864 66.0275L189.177 75.225C190.671 76.8346 191.591 78.904 191.591 81.0884C191.591 82.583 191.246 83.8477 190.557 85.1124L187.682 82.2381C186.648 81.2034 185.038 81.2034 184.003 82.2381C182.969 83.2728 182.969 84.8824 184.003 85.9171L186.648 88.5614C183.428 90.171 179.749 89.5961 177.335 87.0668ZM222.403 120.523C219.184 123.742 213.895 123.742 210.791 120.523L201.594 111.21C199.984 109.601 199.179 107.531 199.179 105.347C199.179 104.197 199.409 103.048 199.869 102.013L202.513 104.542C202.973 105.002 203.663 105.347 204.353 105.347C205.043 105.347 205.732 105.117 206.192 104.542C207.227 103.507 207.227 101.898 206.192 100.863L203.318 98.3338C204.583 97.644 205.962 97.2991 207.342 97.2991C209.411 97.2991 211.596 98.1038 213.205 99.7134L222.518 108.911C224.012 110.52 224.932 112.59 224.932 114.774C224.817 116.959 224.012 119.028 222.403 120.523Z" fill="#92F2CE" fill-opacity="0.81"/>
<path d="M176.672 307.577L167.359 298.265C162.646 293.551 155.288 293.091 149.999 296.885L144.481 291.367C146.09 289.182 147.01 286.538 147.01 283.664C147.01 280.1 145.63 276.651 143.101 274.121L133.788 264.809C128.615 259.635 120.107 259.635 114.819 264.809C112.404 267.453 111.025 270.787 111.025 274.351C111.025 277.915 112.404 281.249 114.934 283.779L124.131 293.091C126.775 295.735 130.224 297 133.558 297C136.088 297 138.502 296.31 140.687 294.931L146.435 300.679C145.055 302.748 144.366 305.278 144.366 307.807C144.366 311.371 145.745 314.705 148.275 317.235L157.472 326.547C160.116 329.191 163.565 330.456 166.899 330.456C170.349 330.456 173.798 329.191 176.327 326.547C178.856 324.018 180.236 320.684 180.236 317.12C180.581 313.556 179.201 310.221 176.672 307.577ZM127.81 289.412L118.613 280.1C117.003 278.49 116.198 276.421 116.198 274.236C116.198 272.052 117.003 269.982 118.613 268.373C120.222 266.763 122.292 265.958 124.476 265.958C126.545 265.958 128.73 266.763 130.339 268.373L139.652 277.57C141.146 279.18 142.066 281.249 142.066 283.434C142.066 284.928 141.721 286.193 141.031 287.458L138.157 284.583C137.123 283.549 135.513 283.549 134.478 284.583C133.444 285.618 133.444 287.228 134.478 288.262L137.123 290.907C133.903 292.516 130.224 291.941 127.81 289.412ZM172.878 322.868C169.659 326.087 164.37 326.087 161.266 322.868L152.068 313.556C150.459 311.946 149.654 309.877 149.654 307.692C149.654 306.542 149.884 305.393 150.344 304.358L152.988 306.887C153.448 307.347 154.138 307.692 154.828 307.692C155.518 307.692 156.207 307.462 156.667 306.887C157.702 305.853 157.702 304.243 156.667 303.208L153.793 300.679C155.058 299.989 156.437 299.644 157.817 299.644C159.886 299.644 162.071 300.449 163.68 302.059L172.993 311.256C174.487 312.866 175.407 314.935 175.407 317.12C175.292 319.304 174.487 321.373 172.878 322.868Z" fill="#92F2CE" fill-opacity="0.81"/>
<path d="M581.362 105.232L572.05 95.9194C567.336 91.2057 559.978 90.7458 554.689 94.5398L549.171 89.0213C550.781 86.8369 551.7 84.1926 551.7 81.3184C551.7 77.7543 550.321 74.3053 547.791 71.776L538.479 62.4635C533.305 57.2899 524.798 57.2899 519.509 62.4635C517.095 65.1078 515.715 68.4419 515.715 72.0059C515.715 75.5699 517.095 78.904 519.624 81.4333L528.821 90.7458C531.466 93.3901 534.915 94.6548 538.249 94.6548C540.778 94.6548 543.193 93.965 545.377 92.5853L551.125 98.3338C549.746 100.403 549.056 102.933 549.056 105.462C549.056 109.026 550.436 112.36 552.965 114.889L562.162 124.202C564.807 126.846 568.256 128.111 571.59 128.111C575.039 128.111 578.488 126.846 581.017 124.202C583.547 121.672 584.926 118.338 584.926 114.774C585.271 111.21 583.892 107.876 581.362 105.232ZM532.5 87.0668L523.303 77.7543C521.693 76.1448 520.889 74.0753 520.889 71.8909C520.889 69.7065 521.693 67.6371 523.303 66.0275C524.913 64.418 526.982 63.6132 529.166 63.6132C531.236 63.6132 533.42 64.418 535.03 66.0275L544.342 75.225C545.837 76.8346 546.757 78.904 546.757 81.0884C546.757 82.583 546.412 83.8477 545.722 85.1124L542.848 82.2381C541.813 81.2034 540.203 81.2034 539.169 82.2381C538.134 83.2728 538.134 84.8824 539.169 85.9171L541.813 88.5614C538.594 90.171 534.915 89.5961 532.5 87.0668ZM577.568 120.523C574.349 123.742 569.061 123.742 565.956 120.523L556.759 111.21C555.149 109.601 554.345 107.531 554.345 105.347C554.345 104.197 554.575 103.048 555.034 102.013L557.679 104.542C558.139 105.002 558.828 105.347 559.518 105.347C560.208 105.347 560.898 105.117 561.358 104.542C562.392 103.507 562.392 101.898 561.358 100.863L558.483 98.3338C559.748 97.644 561.128 97.2991 562.507 97.2991C564.577 97.2991 566.761 98.1038 568.371 99.7134L577.683 108.911C579.178 110.52 580.098 112.59 580.098 114.774C579.983 116.959 579.178 119.028 577.568 120.523Z" fill="#92F2CE" fill-opacity="0.81"/>
<path d="M531.837 307.577L522.525 298.265C517.811 293.551 510.453 293.091 505.164 296.885L499.646 291.367C501.256 289.182 502.175 286.538 502.175 283.664C502.175 280.1 500.796 276.651 498.266 274.121L488.954 264.809C483.78 259.635 475.273 259.635 469.984 264.809C467.57 267.453 466.19 270.787 466.19 274.351C466.19 277.915 467.57 281.249 470.099 283.779L479.296 293.091C481.941 295.735 485.39 297 488.724 297C491.253 297 493.668 296.31 495.852 294.931L501.6 300.679C500.221 302.748 499.531 305.278 499.531 307.807C499.531 311.371 500.911 314.705 503.44 317.235L512.637 326.547C515.282 329.191 518.731 330.456 522.065 330.456C525.514 330.456 528.963 329.191 531.492 326.547C534.022 324.018 535.401 320.684 535.401 317.12C535.746 313.556 534.367 310.221 531.837 307.577ZM482.975 289.412L473.778 280.1C472.168 278.49 471.364 276.421 471.364 274.236C471.364 272.052 472.168 269.982 473.778 268.373C475.388 266.763 477.457 265.958 479.641 265.958C481.711 265.958 483.895 266.763 485.505 268.373L494.817 277.57C496.312 279.18 497.232 281.249 497.232 283.434C497.232 284.928 496.887 286.193 496.197 287.458L493.323 284.583C492.288 283.549 490.678 283.549 489.644 284.583C488.609 285.618 488.609 287.228 489.644 288.262L492.288 290.907C489.069 292.516 485.39 291.941 482.975 289.412ZM528.043 322.868C524.824 326.087 519.536 326.087 516.431 322.868L507.234 313.556C505.624 311.946 504.82 309.877 504.82 307.692C504.82 306.542 505.049 305.393 505.509 304.358L508.154 306.887C508.614 307.347 509.303 307.692 509.993 307.692C510.683 307.692 511.373 307.462 511.833 306.887C512.867 305.853 512.867 304.243 511.833 303.208L508.958 300.679C510.223 299.989 511.603 299.644 512.982 299.644C515.052 299.644 517.236 300.449 518.846 302.059L528.158 311.256C529.653 312.866 530.573 314.935 530.573 317.12C530.458 319.304 529.653 321.373 528.043 322.868Z" fill="#92F2CE" fill-opacity="0.81"/>
<path d="M132.904 144.976C131.869 144.056 130.145 144.171 129.225 145.206L113.359 163.141C112.095 164.52 112.095 166.705 113.359 168.085L129.34 186.02C129.8 186.595 130.605 186.939 131.294 186.939C131.869 186.939 132.559 186.709 133.019 186.25C134.054 185.33 134.169 183.605 133.249 182.571L118.073 165.555L133.134 148.655C134.169 147.505 134.054 145.896 132.904 144.976Z" fill="#92F2CE" fill-opacity="0.81"/>
<path d="M180.961 163.141L164.98 145.206C164.061 144.171 162.451 144.056 161.301 144.976C160.152 145.896 160.152 147.505 161.071 148.655L176.247 165.555L161.186 182.456C160.267 183.49 160.382 185.1 161.416 186.135C161.876 186.595 162.566 186.824 163.141 186.824C163.831 186.824 164.52 186.48 165.095 185.905L181.076 167.97C182.226 166.59 182.226 164.52 180.961 163.141Z" fill="#92F2CE" fill-opacity="0.81"/>
<path d="M153.943 145.321C152.564 144.861 151.069 145.551 150.724 146.93L138.767 182.456C138.308 183.835 138.997 185.33 140.377 185.675C140.607 185.79 140.952 185.79 141.182 185.79C142.216 185.79 143.251 185.1 143.596 184.065L155.438 148.54C156.013 147.275 155.323 145.781 153.943 145.321Z" fill="#92F2CE" fill-opacity="0.81"/>
<path d="M83.379 347.321C82.3443 346.401 80.6198 346.516 79.7 347.551L63.8343 365.486C62.5696 366.866 62.5696 369.05 63.8343 370.43L79.815 388.365C80.2748 388.94 81.0796 389.285 81.7694 389.285C82.3443 389.285 83.0341 389.055 83.494 388.595C84.5287 387.675 84.6437 385.951 83.7239 384.916L68.548 367.9L83.6089 351C84.6437 349.85 84.5287 348.241 83.379 347.321Z" fill="#92F2CE" fill-opacity="0.81"/>
<path d="M131.436 365.486L115.455 347.551C114.536 346.516 112.926 346.401 111.776 347.321C110.627 348.241 110.627 349.85 111.546 351L126.722 367.9L111.661 384.801C110.742 385.836 110.857 387.445 111.891 388.48C112.351 388.94 113.041 389.17 113.616 389.17C114.306 389.17 114.995 388.825 115.57 388.25L131.551 370.315C132.701 368.935 132.701 366.866 131.436 365.486Z" fill="#92F2CE" fill-opacity="0.81"/>
<path d="M104.418 347.666C103.039 347.206 101.544 347.896 101.199 349.275L89.2424 384.801C88.7825 386.18 89.4723 387.675 90.852 388.02C91.0819 388.135 91.4268 388.135 91.6568 388.135C92.6915 388.135 93.7262 387.445 94.0711 386.41L105.913 350.885C106.488 349.62 105.798 348.126 104.418 347.666Z" fill="#92F2CE" fill-opacity="0.81"/>
<path d="M488.069 144.976C487.035 144.056 485.31 144.171 484.39 145.206L468.525 163.141C467.26 164.52 467.26 166.705 468.525 168.085L484.505 186.02C484.965 186.595 485.77 186.939 486.46 186.939C487.035 186.939 487.725 186.709 488.184 186.25C489.219 185.33 489.334 183.605 488.414 182.571L473.238 165.555L488.299 148.655C489.334 147.505 489.219 145.896 488.069 144.976Z" fill="#92F2CE" fill-opacity="0.81"/>
<path d="M536.126 163.141L520.146 145.206C519.226 144.171 517.616 144.056 516.467 144.976C515.317 145.896 515.317 147.505 516.237 148.655L531.413 165.555L516.352 182.456C515.432 183.49 515.547 185.1 516.582 186.135C517.042 186.595 517.731 186.824 518.306 186.824C518.996 186.824 519.686 186.48 520.261 185.905L536.241 167.97C537.391 166.59 537.391 164.52 536.126 163.141Z" fill="#92F2CE" fill-opacity="0.81"/>
<path d="M509.109 145.321C507.729 144.861 506.235 145.551 505.89 146.93L493.933 182.456C493.473 183.835 494.163 185.33 495.542 185.675C495.772 185.79 496.117 185.79 496.347 185.79C497.382 185.79 498.417 185.1 498.762 184.065L510.603 148.54C511.178 147.275 510.488 145.781 509.109 145.321Z" fill="#92F2CE" fill-opacity="0.81"/>
<path d="M438.544 347.321C437.51 346.401 435.785 346.516 434.865 347.551L419 365.486C417.735 366.866 417.735 369.05 419 370.43L434.98 388.365C435.44 388.94 436.245 389.285 436.935 389.285C437.51 389.285 438.2 389.055 438.659 388.595C439.694 387.675 439.809 385.951 438.889 384.916L423.713 367.9L438.774 351C439.809 349.85 439.694 348.241 438.544 347.321Z" fill="#92F2CE" fill-opacity="0.81"/>
<path d="M486.601 365.486L470.621 347.551C469.701 346.516 468.091 346.401 466.942 347.321C465.792 348.241 465.792 349.85 466.712 351L481.888 367.9L466.827 384.801C465.907 385.836 466.022 387.445 467.057 388.48C467.517 388.94 468.206 389.17 468.781 389.17C469.471 389.17 470.161 388.825 470.736 388.25L486.716 370.315C487.866 368.935 487.866 366.866 486.601 365.486Z" fill="#92F2CE" fill-opacity="0.81"/>
<path d="M459.584 347.666C458.204 347.206 456.709 347.896 456.365 349.275L444.408 384.801C443.948 386.18 444.638 387.675 446.017 388.02C446.247 388.135 446.592 388.135 446.822 388.135C447.857 388.135 448.892 387.445 449.237 386.41L461.078 350.885C461.653 349.62 460.963 348.126 459.584 347.666Z" fill="#92F2CE" fill-opacity="0.81"/>
<path d="M296.443 8.50769H241.258C237.349 8.50769 234.015 11.7268 234.015 15.7507V41.7337C234.015 45.6426 237.234 48.9767 241.258 48.9767H266.321V59.8988H258.733C257.353 59.8988 256.089 61.0485 256.089 62.5431C256.089 64.0377 257.238 65.1873 258.733 65.1873H279.198C280.577 65.1873 281.842 64.0377 281.842 62.5431C281.842 61.0485 280.692 59.8988 279.198 59.8988H271.61V48.9767H296.443C300.352 48.9767 303.686 45.7576 303.686 41.7337V15.7507C303.686 11.7268 300.352 8.50769 296.443 8.50769ZM298.512 41.7337C298.512 42.8834 297.593 43.8031 296.443 43.8031H241.258C240.108 43.8031 239.188 42.8834 239.188 41.7337V15.7507C239.188 14.601 240.108 13.6813 241.258 13.6813H296.443C297.593 13.6813 298.512 14.601 298.512 15.7507V41.7337Z" fill="#92F2CE" fill-opacity="0.81"/>
<path d="M283.911 20.2345C282.877 19.1998 281.267 19.1998 280.232 20.2345C279.198 21.2692 279.198 22.8788 280.232 23.9135L284.486 28.1674L280.347 32.4212C279.313 33.4559 279.313 35.0655 280.347 36.1002C280.807 36.5601 281.497 36.905 282.187 36.905C282.877 36.905 283.566 36.6751 284.026 36.1002L289.775 30.3518C290.924 29.2021 290.924 27.3626 289.775 26.2129L283.911 20.2345Z" fill="#92F2CE" fill-opacity="0.81"/>
<path d="M253.1 28.6272L257.239 24.4884C258.273 23.4536 258.273 21.8441 257.239 20.8094C256.204 19.7746 254.594 19.7746 253.56 20.8094L247.811 26.5578C246.661 27.7075 246.661 29.547 247.811 30.6967L253.674 36.5601C254.134 37.02 254.824 37.3649 255.514 37.3649C256.204 37.3649 256.894 37.1349 257.353 36.5601C258.388 35.5254 258.388 33.9158 257.353 32.8811L253.1 28.6272Z" fill="#92F2CE" fill-opacity="0.81"/>
<path d="M272.414 19.6597C271.035 19.0848 269.54 19.7746 269.08 21.1543L263.792 34.4906C263.217 35.8703 263.907 37.3649 265.286 37.8247C265.631 37.9397 265.861 38.0547 266.206 38.0547C267.241 38.0547 268.16 37.4798 268.62 36.4451L273.909 22.9938C274.369 21.7291 273.794 20.1195 272.414 19.6597Z" fill="#92F2CE" fill-opacity="0.81"/>
<path d="M246.918 210.853H191.733C187.824 210.853 184.49 214.072 184.49 218.096V244.079C184.49 247.988 187.709 251.322 191.733 251.322H216.796V262.244H209.208C207.828 262.244 206.564 263.394 206.564 264.888C206.564 266.383 207.713 267.533 209.208 267.533H229.672C231.052 267.533 232.317 266.383 232.317 264.888C232.317 263.394 231.167 262.244 229.672 262.244H222.085V251.322H246.918C250.827 251.322 254.161 248.103 254.161 244.079V218.096C254.161 214.072 250.827 210.853 246.918 210.853ZM248.987 244.079C248.987 245.229 248.067 246.148 246.918 246.148H191.733C190.583 246.148 189.663 245.229 189.663 244.079V218.096C189.663 216.946 190.583 216.027 191.733 216.027H246.918C248.067 216.027 248.987 216.946 248.987 218.096V244.079Z" fill="#92F2CE" fill-opacity="0.81"/>
<path d="M234.386 222.58C233.351 221.545 231.742 221.545 230.707 222.58C229.672 223.614 229.672 225.224 230.707 226.259L234.961 230.513L230.822 234.766C229.787 235.801 229.787 237.411 230.822 238.445C231.282 238.905 231.972 239.25 232.662 239.25C233.351 239.25 234.041 239.02 234.501 238.445L240.25 232.697C241.399 231.547 241.399 229.708 240.25 228.558L234.386 222.58Z" fill="#92F2CE" fill-opacity="0.81"/>
<path d="M203.575 230.972L207.713 226.834C208.748 225.799 208.748 224.189 207.713 223.155C206.679 222.12 205.069 222.12 204.034 223.155L198.286 228.903C197.136 230.053 197.136 231.892 198.286 233.042L204.149 238.905C204.609 239.365 205.299 239.71 205.989 239.71C206.679 239.71 207.369 239.48 207.828 238.905C208.863 237.871 208.863 236.261 207.828 235.226L203.575 230.972Z" fill="#92F2CE" fill-opacity="0.81"/>
<path d="M222.889 222.005C221.51 221.43 220.015 222.12 219.555 223.499L214.267 236.836C213.692 238.215 214.382 239.71 215.761 240.17C216.106 240.285 216.336 240.4 216.681 240.4C217.716 240.4 218.635 239.825 219.095 238.79L224.384 225.339C224.844 224.074 224.269 222.465 222.889 222.005Z" fill="#92F2CE" fill-opacity="0.81"/>
<path d="M651.608 8.50769H596.423C592.514 8.50769 589.18 11.7268 589.18 15.7507V41.7337C589.18 45.6426 592.399 48.9767 596.423 48.9767H621.486V59.8988H613.898C612.519 59.8988 611.254 61.0485 611.254 62.5431C611.254 64.0377 612.404 65.1873 613.898 65.1873H634.363C635.743 65.1873 637.007 64.0377 637.007 62.5431C637.007 61.0485 635.858 59.8988 634.363 59.8988H626.775V48.9767H651.608C655.517 48.9767 658.851 45.7576 658.851 41.7337V15.7507C658.851 11.7268 655.517 8.50769 651.608 8.50769ZM653.678 41.7337C653.678 42.8834 652.758 43.8031 651.608 43.8031H596.423C595.274 43.8031 594.354 42.8834 594.354 41.7337V15.7507C594.354 14.601 595.274 13.6813 596.423 13.6813H651.608C652.758 13.6813 653.678 14.601 653.678 15.7507V41.7337Z" fill="#92F2CE" fill-opacity="0.81"/>
<path d="M639.077 20.2345C638.042 19.1998 636.432 19.1998 635.398 20.2345C634.363 21.2692 634.363 22.8788 635.398 23.9135L639.651 28.1674L635.513 32.4212C634.478 33.4559 634.478 35.0655 635.513 36.1002C635.972 36.5601 636.662 36.905 637.352 36.905C638.042 36.905 638.732 36.6751 639.192 36.1002L644.94 30.3518C646.09 29.2021 646.09 27.3626 644.94 26.2129L639.077 20.2345Z" fill="#92F2CE" fill-opacity="0.81"/>
<path d="M608.265 28.6272L612.404 24.4884C613.439 23.4536 613.439 21.8441 612.404 20.8094C611.369 19.7746 609.76 19.7746 608.725 20.8094L602.976 26.5578C601.827 27.7075 601.827 29.547 602.976 30.6967L608.84 36.5601C609.3 37.02 609.99 37.3649 610.679 37.3649C611.369 37.3649 612.059 37.1349 612.519 36.5601C613.554 35.5254 613.554 33.9158 612.519 32.8811L608.265 28.6272Z" fill="#92F2CE" fill-opacity="0.81"/>
<path d="M627.58 19.6597C626.2 19.0848 624.706 19.7746 624.246 21.1543L618.957 34.4906C618.382 35.8703 619.072 37.3649 620.452 37.8247C620.797 37.9397 621.027 38.0547 621.371 38.0547C622.406 38.0547 623.326 37.4798 623.786 36.4451L629.074 22.9938C629.534 21.7291 628.959 20.1195 627.58 19.6597Z" fill="#92F2CE" fill-opacity="0.81"/>
<path d="M602.083 210.853H546.898C542.989 210.853 539.655 214.072 539.655 218.096V244.079C539.655 247.988 542.874 251.322 546.898 251.322H571.961V262.244H564.373C562.994 262.244 561.729 263.394 561.729 264.888C561.729 266.383 562.879 267.533 564.373 267.533H584.838C586.217 267.533 587.482 266.383 587.482 264.888C587.482 263.394 586.332 262.244 584.838 262.244H577.25V251.322H602.083C605.992 251.322 609.326 248.103 609.326 244.079V218.096C609.326 214.072 605.992 210.853 602.083 210.853ZM604.153 244.079C604.153 245.229 603.233 246.148 602.083 246.148H546.898C545.748 246.148 544.829 245.229 544.829 244.079V218.096C544.829 216.946 545.748 216.027 546.898 216.027H602.083C603.233 216.027 604.153 216.946 604.153 218.096V244.079Z" fill="#92F2CE" fill-opacity="0.81"/>
<path d="M589.552 222.58C588.517 221.545 586.907 221.545 585.873 222.58C584.838 223.614 584.838 225.224 585.873 226.259L590.126 230.513L585.988 234.766C584.953 235.801 584.953 237.411 585.988 238.445C586.447 238.905 587.137 239.25 587.827 239.25C588.517 239.25 589.207 239.02 589.667 238.445L595.415 232.697C596.565 231.547 596.565 229.708 595.415 228.558L589.552 222.58Z" fill="#92F2CE" fill-opacity="0.81"/>
<path d="M558.74 230.972L562.879 226.834C563.914 225.799 563.914 224.189 562.879 223.155C561.844 222.12 560.235 222.12 559.2 223.155L553.451 228.903C552.302 230.053 552.302 231.892 553.451 233.042L559.315 238.905C559.775 239.365 560.464 239.71 561.154 239.71C561.844 239.71 562.534 239.48 562.994 238.905C564.029 237.871 564.029 236.261 562.994 235.226L558.74 230.972Z" fill="#92F2CE" fill-opacity="0.81"/>
<path d="M578.055 222.005C576.675 221.43 575.181 222.12 574.721 223.499L569.432 236.836C568.857 238.215 569.547 239.71 570.927 240.17C571.272 240.285 571.502 240.4 571.846 240.4C572.881 240.4 573.801 239.825 574.261 238.79L579.549 225.339C580.009 224.074 579.434 222.465 578.055 222.005Z" fill="#92F2CE" fill-opacity="0.81"/>
<path d="M401.507 107.328H395.298V84.679C395.298 81 392.309 78.1258 388.745 78.1258H382.077C378.398 78.1258 375.524 81.115 375.524 84.679V107.328H368.626V67.3187C368.626 63.6397 365.636 60.7655 362.072 60.7655H355.404C351.725 60.7655 348.851 63.7547 348.851 67.3187V107.328H339.768V51.338C339.768 49.9584 338.619 48.6938 337.124 48.6938C335.63 48.6938 334.48 49.8434 334.48 51.338V107.558C334.48 110.202 336.664 112.501 339.424 112.501H401.507C402.886 112.501 404.151 111.352 404.151 109.857C404.151 108.363 402.886 107.328 401.507 107.328ZM354.025 107.328V67.3187C354.025 66.5139 354.714 65.9391 355.404 65.9391H362.072C362.877 65.9391 363.452 66.6289 363.452 67.3187V107.328H354.025ZM380.697 107.328V84.679C380.697 83.8742 381.387 83.2994 382.077 83.2994H388.745C389.55 83.2994 390.125 83.9892 390.125 84.679V107.328H380.697Z" fill="#92F2CE" fill-opacity="0.81"/>
<path d="M351.982 309.673H345.773V287.024C345.773 283.345 342.784 280.471 339.22 280.471H332.552C328.873 280.471 325.999 283.46 325.999 287.024V309.673H319.101V269.664C319.101 265.985 316.111 263.111 312.547 263.111H305.879C302.2 263.111 299.326 266.1 299.326 269.664V309.673H290.243V253.683C290.243 252.304 289.094 251.039 287.599 251.039C286.105 251.039 284.955 252.189 284.955 253.683V309.903C284.955 312.547 287.139 314.847 289.898 314.847H351.982C353.361 314.847 354.626 313.697 354.626 312.202C354.626 310.708 353.361 309.673 351.982 309.673ZM304.5 309.673V269.664C304.5 268.859 305.189 268.284 305.879 268.284H312.547C313.352 268.284 313.927 268.974 313.927 269.664V309.673H304.5ZM331.172 309.673V287.024C331.172 286.219 331.862 285.645 332.552 285.645H339.22C340.025 285.645 340.6 286.334 340.6 287.024V309.673H331.172Z" fill="#92F2CE" fill-opacity="0.81"/>
<path d="M756.672 107.328H750.464V84.679C750.464 81 747.475 78.1258 743.911 78.1258H737.242C733.563 78.1258 730.689 81.115 730.689 84.679V107.328H723.791V67.3187C723.791 63.6397 720.802 60.7655 717.238 60.7655H710.57C706.891 60.7655 704.016 63.7547 704.016 67.3187V107.328H694.934V51.338C694.934 49.9584 693.784 48.6938 692.29 48.6938C690.795 48.6938 689.645 49.8434 689.645 51.338V107.558C689.645 110.202 691.83 112.501 694.589 112.501H756.672C758.052 112.501 759.316 111.352 759.316 109.857C759.316 108.363 758.052 107.328 756.672 107.328ZM709.19 107.328V67.3187C709.19 66.5139 709.88 65.9391 710.57 65.9391H717.238C718.043 65.9391 718.617 66.6289 718.617 67.3187V107.328H709.19ZM735.863 107.328V84.679C735.863 83.8742 736.553 83.2994 737.242 83.2994H743.911C744.715 83.2994 745.29 83.9892 745.29 84.679V107.328H735.863Z" fill="#92F2CE" fill-opacity="0.81"/>
<path d="M707.147 309.673H700.939V287.024C700.939 283.345 697.95 280.471 694.386 280.471H687.717C684.038 280.471 681.164 283.46 681.164 287.024V309.673H674.266V269.664C674.266 265.985 671.277 263.111 667.713 263.111H661.045C657.366 263.111 654.491 266.1 654.491 269.664V309.673H645.409V253.683C645.409 252.304 644.259 251.039 642.765 251.039C641.27 251.039 640.12 252.189 640.12 253.683V309.903C640.12 312.547 642.305 314.847 645.064 314.847H707.147C708.527 314.847 709.791 313.697 709.791 312.202C709.791 310.708 708.527 309.673 707.147 309.673ZM659.665 309.673V269.664C659.665 268.859 660.355 268.284 661.045 268.284H667.713C668.518 268.284 669.092 268.974 669.092 269.664V309.673H659.665ZM686.338 309.673V287.024C686.338 286.219 687.028 285.645 687.717 285.645H694.386C695.19 285.645 695.765 286.334 695.765 287.024V309.673H686.338Z" fill="#92F2CE" fill-opacity="0.81"/>
<path d="M323.381 167.589L323.956 166.325L324.531 167.589C324.991 168.624 326.025 169.199 327.175 169.199C328.325 169.199 329.244 168.624 329.819 167.589L332.693 161.726C333.383 160.461 332.808 158.852 331.544 158.277C330.279 157.702 328.67 158.162 328.095 159.426L327.175 161.151L326.6 159.886C326.14 158.852 325.105 158.277 323.956 158.277C322.806 158.277 321.886 158.852 321.311 159.886L320.737 161.151L319.932 159.311C319.242 158.047 317.747 157.472 316.483 158.162C315.793 158.507 315.333 159.197 315.103 159.886C314.988 159.197 314.413 158.507 313.724 158.162C312.459 157.472 310.849 158.047 310.274 159.311L309.355 161.036L308.78 159.771C308.32 158.737 307.285 158.162 306.136 158.162C304.986 158.162 304.066 158.737 303.491 159.771L302.916 161.036L301.997 159.311C301.307 158.047 299.812 157.472 298.548 158.162C297.858 158.507 297.398 159.197 297.168 159.886C297.053 159.197 296.478 158.507 295.788 158.162C294.524 157.472 292.914 158.047 292.339 159.311L291.42 161.036L290.845 159.771C290.385 158.737 289.35 158.162 288.2 158.162C287.051 158.162 286.131 158.737 285.556 159.771L284.981 161.036L284.062 159.311C283.372 158.047 281.877 157.472 280.613 158.162C279.348 158.852 278.773 160.346 279.463 161.611L282.337 167.474C282.797 168.509 283.832 169.084 284.981 169.084C286.131 169.084 287.051 168.509 287.626 167.474L288.2 166.21L288.775 167.474C289.235 168.509 290.27 169.084 291.42 169.084C292.569 169.084 293.489 168.509 294.064 167.474L296.938 161.611C297.053 161.381 297.053 161.266 297.168 161.036C297.168 161.266 297.283 161.381 297.398 161.611L300.272 167.474C300.732 168.509 301.767 169.084 302.916 169.084C304.066 169.084 304.986 168.509 305.561 167.474L306.136 166.21L306.71 167.474C307.17 168.509 308.205 169.084 309.355 169.084C310.504 169.084 311.424 168.509 311.999 167.474L314.873 161.611C314.988 161.381 314.988 161.266 315.103 161.036C315.103 161.266 315.218 161.381 315.333 161.611L318.207 167.474C318.667 168.509 319.702 169.084 320.852 169.084C321.886 169.199 322.921 168.509 323.381 167.589Z" fill="#92F2CE" fill-opacity="0.81"/>
<path d="M336.487 145.745H275.784C272.68 145.745 270.265 148.274 270.265 151.379V175.752C270.265 178.856 272.795 181.386 275.784 181.386H312.229C313.609 181.386 314.873 180.236 314.873 178.741C314.873 177.247 313.724 176.097 312.229 176.097H275.784C275.554 176.097 275.439 175.867 275.439 175.637V151.379C275.439 151.149 275.554 150.919 275.784 150.919H336.602C336.832 150.919 336.947 151.149 336.947 151.379V175.752C336.947 175.982 336.717 176.212 336.487 176.212C335.108 176.212 333.843 177.362 333.843 178.856C333.843 180.351 334.993 181.501 336.487 181.501C339.592 181.501 342.121 178.971 342.121 175.867V151.379C342.121 148.274 339.592 145.745 336.487 145.745Z" fill="#92F2CE" fill-opacity="0.81"/>
<path d="M339.821 187.824L323.611 179.661C322.231 178.971 320.622 179.201 319.702 180.236C318.667 181.271 318.437 182.88 319.127 184.26L327.29 200.47C327.98 201.735 329.244 202.655 330.739 202.655H330.854C332.119 202.655 333.268 201.85 333.728 200.7L335.683 196.217L340.166 194.262C341.316 193.802 342.006 192.653 342.121 191.388C342.006 189.778 341.201 188.399 339.821 187.824ZM331.659 192.193L330.394 195.067L326.14 186.674L334.533 190.928L331.659 192.193Z" fill="#92F2CE" fill-opacity="0.81"/>
<path d="M273.856 369.934L274.431 368.67L275.006 369.934C275.465 370.969 276.5 371.544 277.65 371.544C278.8 371.544 279.719 370.969 280.294 369.934L283.168 364.071C283.858 362.806 283.283 361.197 282.019 360.622C280.754 360.047 279.144 360.507 278.57 361.772L277.65 363.496L277.075 362.232C276.615 361.197 275.58 360.622 274.431 360.622C273.281 360.622 272.361 361.197 271.786 362.232L271.212 363.496L270.407 361.657C269.717 360.392 268.222 359.817 266.958 360.507C266.268 360.852 265.808 361.542 265.578 362.232C265.463 361.542 264.888 360.852 264.198 360.507C262.934 359.817 261.324 360.392 260.749 361.657L259.83 363.381L259.255 362.117C258.795 361.082 257.76 360.507 256.611 360.507C255.461 360.507 254.541 361.082 253.966 362.117L253.391 363.381L252.472 361.657C251.782 360.392 250.287 359.817 249.023 360.507C248.333 360.852 247.873 361.542 247.643 362.232C247.528 361.542 246.953 360.852 246.263 360.507C244.999 359.817 243.389 360.392 242.814 361.657L241.895 363.381L241.32 362.117C240.86 361.082 239.825 360.507 238.675 360.507C237.526 360.507 236.606 361.082 236.031 362.117L235.456 363.381L234.536 361.657C233.847 360.392 232.352 359.817 231.087 360.507C229.823 361.197 229.248 362.691 229.938 363.956L232.812 369.819C233.272 370.854 234.307 371.429 235.456 371.429C236.606 371.429 237.526 370.854 238.101 369.819L238.675 368.555L239.25 369.819C239.71 370.854 240.745 371.429 241.895 371.429C243.044 371.429 243.964 370.854 244.539 369.819L247.413 363.956C247.528 363.726 247.528 363.611 247.643 363.381C247.643 363.611 247.758 363.726 247.873 363.956L250.747 369.819C251.207 370.854 252.242 371.429 253.391 371.429C254.541 371.429 255.461 370.854 256.036 369.819L256.611 368.555L257.185 369.819C257.645 370.854 258.68 371.429 259.83 371.429C260.979 371.429 261.899 370.854 262.474 369.819L265.348 363.956C265.463 363.726 265.463 363.611 265.578 363.381C265.578 363.611 265.693 363.726 265.808 363.956L268.682 369.819C269.142 370.854 270.177 371.429 271.327 371.429C272.361 371.544 273.396 370.854 273.856 369.934Z" fill="#92F2CE" fill-opacity="0.81"/>
<path d="M286.962 348.09H226.259C223.155 348.09 220.74 350.62 220.74 353.724V378.097C220.74 381.201 223.27 383.731 226.259 383.731H262.704C264.084 383.731 265.348 382.581 265.348 381.086C265.348 379.592 264.198 378.442 262.704 378.442H226.259C226.029 378.442 225.914 378.212 225.914 377.982V353.724C225.914 353.494 226.029 353.264 226.259 353.264H287.077C287.307 353.264 287.422 353.494 287.422 353.724V378.097C287.422 378.327 287.192 378.557 286.962 378.557C285.583 378.557 284.318 379.707 284.318 381.201C284.318 382.696 285.468 383.846 286.962 383.846C290.066 383.846 292.596 381.316 292.596 378.212V353.724C292.596 350.62 290.066 348.09 286.962 348.09Z" fill="#92F2CE" fill-opacity="0.81"/>
<path d="M290.296 390.169L274.086 382.006C272.706 381.316 271.097 381.546 270.177 382.581C269.142 383.616 268.912 385.225 269.602 386.605L277.765 402.816C278.455 404.08 279.719 405 281.214 405H281.329C282.594 405 283.743 404.195 284.203 403.045L286.158 398.562L290.641 396.607C291.791 396.147 292.481 394.998 292.596 393.733C292.481 392.123 291.676 390.744 290.296 390.169ZM282.134 394.538L280.869 397.412L276.615 389.019L285.008 393.273L282.134 394.538Z" fill="#92F2CE" fill-opacity="0.81"/>
<path d="M678.546 167.589L679.121 166.325L679.696 167.589C680.156 168.624 681.191 169.199 682.34 169.199C683.49 169.199 684.41 168.624 684.984 167.589L687.859 161.726C688.549 160.461 687.974 158.852 686.709 158.277C685.444 157.702 683.835 158.162 683.26 159.426L682.34 161.151L681.765 159.886C681.305 158.852 680.271 158.277 679.121 158.277C677.971 158.277 677.052 158.852 676.477 159.886L675.902 161.151L675.097 159.311C674.407 158.047 672.913 157.472 671.648 158.162C670.958 158.507 670.498 159.197 670.268 159.886C670.153 159.197 669.579 158.507 668.889 158.162C667.624 157.472 666.015 158.047 665.44 159.311L664.52 161.036L663.945 159.771C663.485 158.737 662.451 158.162 661.301 158.162C660.151 158.162 659.231 158.737 658.657 159.771L658.082 161.036L657.162 159.311C656.472 158.047 654.978 157.472 653.713 158.162C653.023 158.507 652.563 159.197 652.333 159.886C652.218 159.197 651.644 158.507 650.954 158.162C649.689 157.472 648.079 158.047 647.505 159.311L646.585 161.036L646.01 159.771C645.55 158.737 644.515 158.162 643.366 158.162C642.216 158.162 641.296 158.737 640.721 159.771L640.147 161.036L639.227 159.311C638.537 158.047 637.042 157.472 635.778 158.162C634.513 158.852 633.938 160.346 634.628 161.611L637.502 167.474C637.962 168.509 638.997 169.084 640.147 169.084C641.296 169.084 642.216 168.509 642.791 167.474L643.366 166.21L643.941 167.474C644.4 168.509 645.435 169.084 646.585 169.084C647.735 169.084 648.654 168.509 649.229 167.474L652.103 161.611C652.218 161.381 652.218 161.266 652.333 161.036C652.333 161.266 652.448 161.381 652.563 161.611L655.437 167.474C655.897 168.509 656.932 169.084 658.082 169.084C659.231 169.084 660.151 168.509 660.726 167.474L661.301 166.21L661.876 167.474C662.336 168.509 663.37 169.084 664.52 169.084C665.67 169.084 666.589 168.509 667.164 167.474L670.039 161.611C670.153 161.381 670.153 161.266 670.268 161.036C670.268 161.266 670.383 161.381 670.498 161.611L673.373 167.474C673.832 168.509 674.867 169.084 676.017 169.084C677.052 169.199 678.086 168.509 678.546 167.589Z" fill="#92F2CE" fill-opacity="0.81"/>
<path d="M691.653 145.745H630.949C627.845 145.745 625.431 148.274 625.431 151.379V175.752C625.431 178.856 627.96 181.386 630.949 181.386H667.394C668.774 181.386 670.039 180.236 670.039 178.741C670.039 177.247 668.889 176.097 667.394 176.097H630.949C630.719 176.097 630.604 175.867 630.604 175.637V151.379C630.604 151.149 630.719 150.919 630.949 150.919H691.768C691.998 150.919 692.113 151.149 692.113 151.379V175.752C692.113 175.982 691.883 176.212 691.653 176.212C690.273 176.212 689.008 177.362 689.008 178.856C689.008 180.351 690.158 181.501 691.653 181.501C694.757 181.501 697.286 178.971 697.286 175.867V151.379C697.286 148.274 694.757 145.745 691.653 145.745Z" fill="#92F2CE" fill-opacity="0.81"/>
<path d="M694.987 187.824L678.776 179.661C677.397 178.971 675.787 179.201 674.867 180.236C673.833 181.271 673.603 182.88 674.292 184.26L682.455 200.47C683.145 201.735 684.41 202.655 685.904 202.655H686.019C687.284 202.655 688.434 201.85 688.893 200.7L690.848 196.217L695.332 194.262C696.481 193.802 697.171 192.653 697.286 191.388C697.171 189.778 696.366 188.399 694.987 187.824ZM686.824 192.193L685.559 195.067L681.305 186.674L689.698 190.928L686.824 192.193Z" fill="#92F2CE" fill-opacity="0.81"/>
<path d="M629.021 369.934L629.596 368.67L630.171 369.934C630.631 370.969 631.666 371.544 632.815 371.544C633.965 371.544 634.885 370.969 635.46 369.934L638.334 364.071C639.024 362.806 638.449 361.197 637.184 360.622C635.919 360.047 634.31 360.507 633.735 361.772L632.815 363.496L632.24 362.232C631.781 361.197 630.746 360.622 629.596 360.622C628.446 360.622 627.527 361.197 626.952 362.232L626.377 363.496L625.572 361.657C624.882 360.392 623.388 359.817 622.123 360.507C621.433 360.852 620.973 361.542 620.744 362.232C620.629 361.542 620.054 360.852 619.364 360.507C618.099 359.817 616.49 360.392 615.915 361.657L614.995 363.381L614.42 362.117C613.96 361.082 612.926 360.507 611.776 360.507C610.626 360.507 609.707 361.082 609.132 362.117L608.557 363.381L607.637 361.657C606.947 360.392 605.453 359.817 604.188 360.507C603.498 360.852 603.038 361.542 602.808 362.232C602.693 361.542 602.119 360.852 601.429 360.507C600.164 359.817 598.555 360.392 597.98 361.657L597.06 363.381L596.485 362.117C596.025 361.082 594.991 360.507 593.841 360.507C592.691 360.507 591.771 361.082 591.197 362.117L590.622 363.381L589.702 361.657C589.012 360.392 587.518 359.817 586.253 360.507C584.988 361.197 584.413 362.691 585.103 363.956L587.977 369.819C588.437 370.854 589.472 371.429 590.622 371.429C591.771 371.429 592.691 370.854 593.266 369.819L593.841 368.555L594.416 369.819C594.876 370.854 595.91 371.429 597.06 371.429C598.21 371.429 599.129 370.854 599.704 369.819L602.578 363.956C602.693 363.726 602.693 363.611 602.808 363.381C602.808 363.611 602.923 363.726 603.038 363.956L605.913 369.819C606.372 370.854 607.407 371.429 608.557 371.429C609.707 371.429 610.626 370.854 611.201 369.819L611.776 368.555L612.351 369.819C612.811 370.854 613.845 371.429 614.995 371.429C616.145 371.429 617.065 370.854 617.639 369.819L620.514 363.956C620.629 363.726 620.629 363.611 620.744 363.381C620.744 363.611 620.859 363.726 620.973 363.956L623.848 369.819C624.308 370.854 625.342 371.429 626.492 371.429C627.527 371.544 628.561 370.854 629.021 369.934Z" fill="#92F2CE" fill-opacity="0.81"/>
<path d="M642.128 348.09H581.424C578.32 348.09 575.906 350.62 575.906 353.724V378.097C575.906 381.201 578.435 383.731 581.424 383.731H617.869C619.249 383.731 620.514 382.581 620.514 381.086C620.514 379.592 619.364 378.442 617.869 378.442H581.424C581.194 378.442 581.079 378.212 581.079 377.982V353.724C581.079 353.494 581.194 353.264 581.424 353.264H642.243C642.473 353.264 642.588 353.494 642.588 353.724V378.097C642.588 378.327 642.358 378.557 642.128 378.557C640.748 378.557 639.483 379.707 639.483 381.201C639.483 382.696 640.633 383.846 642.128 383.846C645.232 383.846 647.761 381.316 647.761 378.212V353.724C647.761 350.62 645.232 348.09 642.128 348.09Z" fill="#92F2CE" fill-opacity="0.81"/>
<path d="M645.462 390.169L629.251 382.006C627.872 381.316 626.262 381.546 625.342 382.581C624.307 383.616 624.078 385.225 624.767 386.605L632.93 402.816C633.62 404.08 634.885 405 636.379 405H636.494C637.759 405 638.909 404.195 639.368 403.045L641.323 398.562L645.807 396.607C646.956 396.147 647.646 394.998 647.761 393.733C647.646 392.123 646.841 390.744 645.462 390.169ZM637.299 394.538L636.034 397.412L631.78 389.019L640.173 393.273L637.299 394.538Z" fill="#92F2CE" fill-opacity="0.81"/>
<defs>
<clipPath id="clip0_214_2">
<rect width="73.5801" height="73.5801" fill="white" transform="translate(49.5251 7.07501)"/>
</clipPath>
<clipPath id="clip1_214_2">
<rect width="73.5801" height="73.5801" fill="white" transform="translate(404.69 7.07501)"/>
</clipPath>
</defs>
</svg>
